<?xml version="1.0" encoding="UTF-8"?>
<svg version="1.1" xmlns="http://www.w3.org/2000/svg" width="1280" height="627">
<path d="M0 0 C1.11761719 0.00737183 1.11761719 0.00737183 2.2578125 0.01489258 C12.39290235 0.22859744 22.60117483 2.76318529 30.3125 9.72265625 C35.50127002 15.51369422 37.28235949 21.58209622 37.125 29.1875 C37.11629883 29.89656494 37.10759766 30.60562988 37.09863281 31.33618164 C36.97179802 35.86844623 36.38058561 39.59046862 34.6796875 43.76171875 C33.33447993 47.45256136 32.50390126 51.23766684 31.625 55.0625 C31.36928223 56.16356079 31.36928223 56.16356079 31.10839844 57.28686523 C30.64674763 59.29339423 30.19793097 61.30286374 29.75 63.3125 C29.54761719 64.17746094 29.34523438 65.04242188 29.13671875 65.93359375 C28.66094623 68.86031559 28.65493527 71.6616096 28.6875 74.625 C28.70103516 76.22794922 28.70103516 76.22794922 28.71484375 77.86328125 C28.72644531 78.67152344 28.73804688 79.47976562 28.75 80.3125 C29.25789063 79.90257813 29.76578125 79.49265625 30.2890625 79.0703125 C35.8923033 74.68425509 40.12482 71.98837477 47.4375 72.4375 C64.13101216 74.68803275 82.53138616 85.12886584 93.234375 98.11328125 C96.24913735 102.60445119 96.61811475 107.12171079 95.75 112.3125 C93.84545333 118.48818979 90.27845681 123.01437078 84.75 126.3125 C81.27233036 127.91521156 77.71313297 129.31098887 74.15039062 130.71166992 C68.25986801 133.03939704 63.04547251 135.82820904 57.75 139.3125 C56.54812193 140.07098987 55.34489038 140.82733748 54.140625 141.58203125 C52.86412769 142.38729901 51.58808443 143.19328697 50.3125 144 C49.70833252 144.38075684 49.10416504 144.76151367 48.48168945 145.15380859 C45.59706194 147.00352452 43.14972636 148.88341919 40.75 151.3125 C39.76 151.6425 38.77 151.9725 37.75 152.3125 C37.42 152.9725 37.09 153.6325 36.75 154.3125 C37.5028125 154.40917969 38.255625 154.50585938 39.03125 154.60546875 C44.21611019 155.59124574 49.20046738 157.10247973 54.25 158.625 C55.77947266 159.06875977 55.77947266 159.06875977 57.33984375 159.52148438 C64.06267674 161.54532812 70.13484776 163.72573676 74.75 169.3125 C76.01013376 173.09290128 76.05131603 176.68290761 76.125 180.625 C76.16238281 181.37201172 76.19976563 182.11902344 76.23828125 182.88867188 C76.30138093 186.88147914 76.05099111 189.47472037 73.49609375 192.640625 C71.21129294 194.86367444 69.0034769 196.86890908 66.4375 198.75 C63.59169728 200.89365205 60.84088304 203.06002184 58.1875 205.4375 C53.57750314 209.53323426 48.76927429 213.37607673 43.97338867 217.25 C38.89199215 221.36297557 33.87691549 225.54581826 28.91137695 229.79785156 C26.25545337 232.06677039 23.57367605 234.25525031 20.75 236.3125 C22.68833996 236.22534983 24.6257429 236.11717036 26.5625 236 C27.64144531 235.94199219 28.72039062 235.88398438 29.83203125 235.82421875 C32.98865903 235.27064681 33.9218859 234.87900546 35.75 232.3125 C36.20375 231.11625 36.6575 229.92 37.125 228.6875 C37.66125 227.57375 38.1975 226.46 38.75 225.3125 C44.39467007 223.49814176 50.67056373 224.15998731 56.54199219 224.27099609 C58.02690665 224.29890802 59.51196454 224.31995076 60.99707031 224.33447266 C77.85233044 224.54633042 100.93782486 227.03416549 113.75 239.3125 C116.40284341 243.33455291 117.54979226 246.51374643 116.75 251.3125 C112.73324614 257.87319797 106.56803349 260.78560269 99.37109375 263.06640625 C89.46394289 265.40038084 79.30688364 264.60794243 69.3125 263.3125 C58.73720328 261.94424175 48.38324188 261.38119507 37.9140625 263.8671875 C34.80245334 264.50748253 31.91532428 264.45012279 28.75 264.3125 C28.75 264.9725 28.75 265.6325 28.75 266.3125 C29.41 266.3125 30.07 266.3125 30.75 266.3125 C32.09796793 267.63103632 33.42839276 268.96754281 34.75 270.3125 C36.52142845 271.67260605 38.31538604 273.00362853 40.125 274.3125 C55.80110576 285.8819145 69.6577541 299.03923085 81.75 314.3125 C84.09745741 317.14667107 86.44958068 319.97687107 88.8046875 322.8046875 C90.67566509 325.21667065 92.19488185 327.69101512 93.75 330.3125 C94.41 330.9725 95.07 331.6325 95.75 332.3125 C96.12125 333.034375 96.4925 333.75625 96.875 334.5 C99.55060853 338.5134128 103.06876161 341.23917253 106.75 344.3125 C110.44692533 347.58482796 110.44692533 347.58482796 112.20703125 349.1484375 C113.86513488 350.52805092 113.86513488 350.52805092 116.75 351.3125 C117.86979297 352.47495175 118.98937443 353.63760797 120.10791016 354.80126953 C123.67983449 358.08854453 127.88676997 360.59804215 131.9375 363.25 C132.83275391 363.84490234 133.72800781 364.43980469 134.65039062 365.05273438 C144.4605833 371.58671752 144.4605833 371.58671752 154.75 377.3125 C154.75 377.9725 154.75 378.6325 154.75 379.3125 C155.38421875 379.53421875 156.0184375 379.7559375 156.671875 379.984375 C160.98073985 381.84352989 164.95083801 384.19890466 169 386.5625 C169.80824219 387.02785156 170.61648438 387.49320312 171.44921875 387.97265625 C175.51213744 390.33239943 179.47361777 392.76990698 183.35546875 395.41796875 C187.35591515 398.12144677 191.45464198 400.31029774 195.8125 402.375 C199.92073294 404.3341868 203.8726341 406.33961095 207.69921875 408.8125 C211.79047309 411.42517991 216.0397154 413.35595942 220.5 415.25 C225.76736063 417.53221771 230.95954541 419.86358671 236.0625 422.5 C239.87593805 424.44828238 243.66791555 426.08728167 247.6875 427.5625 C253.88530644 429.86971262 259.83861961 432.60333729 265.8125 435.4375 C266.7295874 435.8696582 267.6466748 436.30181641 268.59155273 436.74707031 C269.45981689 437.16311523 270.32808105 437.57916016 271.22265625 438.0078125 C271.99875244 438.37922363 272.77484863 438.75063477 273.57446289 439.13330078 C275.83469913 440.35840919 277.802321 441.63261648 279.75 443.3125 C279.75 443.9725 279.75 444.6325 279.75 445.3125 C280.32621094 445.57675781 280.90242188 445.84101563 281.49609375 446.11328125 C288.08780278 449.62048172 292.47957911 454.23412901 294.75 461.3125 C294.976875 461.9725 295.20375 462.6325 295.4375 463.3125 C296.3901138 469.40922835 295.79395097 473.91194182 292.75 479.3125 C288.15759886 484.24877659 284.69360738 486.10007473 277.9609375 486.5859375 C250.21466163 487.42512763 217.16147505 482.66854379 191.75 471.3125 C191.09725098 471.03567383 190.44450195 470.75884766 189.77197266 470.47363281 C179.98273148 466.31708101 171.62895211 461.60845482 163.48071289 454.74291992 C162.17210843 453.66136913 160.8417638 452.60605023 159.50170898 451.5637207 C153.13349257 446.59878649 147.36406032 441.23743937 141.6875 435.5 C140.81496582 434.62432373 139.94243164 433.74864746 139.04345703 432.84643555 C133.76215689 427.49724855 128.77033385 422.09632585 124.2109375 416.11328125 C122.8608813 414.1959249 122.8608813 414.1959249 120.75 413.3125 C119.74060473 411.65150663 118.74236343 409.98372488 117.75 408.3125 C116.3419107 406.51819192 114.90238474 404.74824759 113.4375 403 C110.32293261 399.23948536 107.2979497 395.45376137 104.40234375 391.5234375 C102.6914467 389.23415208 100.93476793 386.98317964 99.17553711 384.73095703 C94.59063933 378.84899881 90.3612173 372.86776644 86.34375 366.578125 C84.94851083 364.21415115 84.94851083 364.21415115 82.75 363.3125 C82.42 362.3225 82.09 361.3325 81.75 360.3125 C79.65450135 364.65103897 79.29822368 368.81189083 79.09008789 373.55224609 C79.05133828 374.34501135 79.01258867 375.1377766 78.97266483 375.95456505 C78.62644068 384.1525831 78.90937367 392.28677018 79.30859375 400.4765625 C79.37816207 402.04914555 79.44683083 403.62176862 79.5146637 405.19442749 C79.69286289 409.28194489 79.88096132 413.36893745 80.07202148 417.45587158 C80.37648638 423.99880929 80.66661664 430.54238676 80.95451546 437.08607101 C81.05504633 439.33471496 81.16060138 441.5830763 81.26695251 443.83145142 C82.48411883 470.30962513 82.48411883 470.30962513 80.5625 482.625 C80.36720703 483.93259277 80.36720703 483.93259277 80.16796875 485.26660156 C78.32599649 496.8668405 75.2252045 508.14944668 71.43432617 519.25463867 C70.75996659 521.28252911 70.15540714 523.32204259 69.5625 525.375 C67.8032708 530.71889517 65.185612 535.65009364 62.6184082 540.64086914 C60.81517402 544.14675359 59.13381186 547.61277503 57.75 551.3125 C57.09 551.3125 56.43 551.3125 55.75 551.3125 C55.49347656 551.89515625 55.23695313 552.4778125 54.97265625 553.078125 C52.7803124 557.08458085 49.61662968 559.92293599 45.75 562.3125 C41.88459487 563.07451945 38.30800316 563.09150158 34.75 561.3125 C34.75 560.6525 34.75 559.9925 34.75 559.3125 C34.16734375 559.05726563 33.5846875 558.80203125 32.984375 558.5390625 C23.42762812 553.29287627 19.02176362 541.76593205 14.75 532.3125 C14.275625 531.26578125 13.80125 530.2190625 13.3125 529.140625 C10.39148104 522.38576866 8.12181382 515.49131742 5.9609375 508.46484375 C4.5210123 504.71639332 3.29265606 503.08382803 -0.25 501.3125 C-12.03904866 500.0026057 -23.68434393 506.15227191 -32.6953125 513.234375 C-33.95988281 514.26304687 -33.95988281 514.26304687 -35.25 515.3125 C-44.7531283 522.99349456 -44.7531283 522.99349456 -50.0625 524.125 C-56.59222796 522.46055954 -61.43083914 516.68912008 -65.25 511.3125 C-65.25 510.6525 -65.25 509.9925 -65.25 509.3125 C-65.91 508.9825 -66.57 508.6525 -67.25 508.3125 C-67.97159424 506.66886866 -68.64351421 505.00199614 -69.25 503.3125 C-69.91 503.3125 -70.57 503.3125 -71.25 503.3125 C-76.20270529 495.54254158 -80.07730648 487.82237693 -83.125 479.125 C-83.41060791 478.31901367 -83.69621582 477.51302734 -83.99047852 476.68261719 C-87.51891854 466.22531548 -88.64234167 455.7222143 -89.3125 444.75 C-89.39483887 443.4518335 -89.47717773 442.15366699 -89.56201172 440.81616211 C-90.67493162 422.33882769 -90.9195866 403.81699329 -91.25 385.3125 C-91.91 385.3125 -92.57 385.3125 -93.25 385.3125 C-93.33894531 385.87582031 -93.42789063 386.43914062 -93.51953125 387.01953125 C-94.45143376 389.9448081 -95.95787792 391.65838989 -97.9375 394 C-101.1787773 397.93583672 -104.09429197 401.93773767 -106.875 406.20703125 C-114.06818182 417.22159091 -114.06818182 417.22159091 -118.25 419.3125 C-118.5903125 420.364375 -118.5903125 420.364375 -118.9375 421.4375 C-120.23974446 424.29003548 -121.26895479 425.45403969 -123.5 427.5625 C-126.22499896 430.14674488 -128.25952604 432.69131182 -130.25 435.875 C-132.65857798 439.68587674 -135.24383045 442.31446471 -138.83203125 445.0234375 C-140.53898325 446.36403144 -140.53898325 446.36403144 -141.25 449.3125 C-142.78125 450.8203125 -142.78125 450.8203125 -144.75 452.4375 C-147.87335993 455.07735048 -150.77671501 457.81555693 -153.625 460.75 C-158.18369682 465.37179297 -163.12120082 469.34702116 -168.25 473.3125 C-169.10464844 474.02277344 -169.95929688 474.73304688 -170.83984375 475.46484375 C-173.54113691 477.53568924 -175.99060842 478.40290235 -179.25 479.3125 C-179.25 479.9725 -179.25 480.6325 -179.25 481.3125 C-189.68317017 486.87435054 -198.44777749 490.83343832 -210.3125 491.73046875 C-218.33375926 492.91615092 -226.09288186 496.73159742 -232.94921875 500.98828125 C-236.43927685 502.99699041 -239.24534306 503.05413504 -243.25 503.3125 C-244.24 502.9825 -245.23 502.6525 -246.25 502.3125 C-247.125 499.75 -247.125 499.75 -247.25 496.3125 C-243.44724778 490.32028438 -237.8924642 486.69918528 -232.10131836 482.77636719 C-229.16629811 480.77653469 -227.24521736 479.30532604 -225.25 476.3125 C-223.7340625 475.508125 -223.7340625 475.508125 -222.1875 474.6875 C-217.82858864 472.34458514 -214.78087033 468.95027116 -211.37890625 465.41015625 C-209.25 463.3125 -209.25 463.3125 -206.125 461.25 C-202.76096857 458.98293534 -200.56233499 456.34231996 -197.96875 453.25390625 C-195.64652322 450.63084555 -192.93872933 448.55310777 -190.25 446.3125 C-188.41912594 444.3225968 -186.6618992 442.28239796 -184.91015625 440.22265625 C-183.25 438.3125 -183.25 438.3125 -180.625 435.75 C-178.24437708 433.30672911 -176.42597148 430.79171103 -174.49609375 427.99609375 C-172.6660498 425.52352653 -170.4230695 423.4855695 -168.25 421.3125 C-166.72843995 419.39253704 -165.27833281 417.43034738 -163.83203125 415.453125 C-162.2886155 413.3647501 -160.68411363 411.34048459 -159.0625 409.3125 C-155.12236214 404.28573219 -151.55617836 399.0102034 -147.98168945 393.72070312 C-147.52753662 393.05103516 -147.07338379 392.38136719 -146.60546875 391.69140625 C-146.19965576 391.0888501 -145.79384277 390.48629395 -145.37573242 389.86547852 C-143.87529745 387.79558764 -142.5459851 386.46049255 -140.25 385.3125 C-140.105625 384.735 -139.96125 384.1575 -139.8125 383.5625 C-139.10748918 380.74245671 -137.90231701 378.6918365 -136.25 376.3125 C-135.59 376.3125 -134.93 376.3125 -134.25 376.3125 C-133.981875 375.61125 -133.71375 374.91 -133.4375 374.1875 C-132.1818551 371.1475176 -130.74764877 368.2397226 -129.25 365.3125 C-128.59 365.3125 -127.93 365.3125 -127.25 365.3125 C-126.981875 364.59707031 -126.71375 363.88164062 -126.4375 363.14453125 C-125.23268693 360.27121061 -123.83762888 357.67912374 -122.25 355 C-121.734375 354.11699219 -121.21875 353.23398437 -120.6875 352.32421875 C-119.9759375 351.32841797 -119.9759375 351.32841797 -119.25 350.3125 C-118.59 350.3125 -117.93 350.3125 -117.25 350.3125 C-116.981875 349.260625 -116.71375 348.20875 -116.4375 347.125 C-115.37747781 343.72177088 -114.33611696 341.18091082 -112.25 338.3125 C-111.59 338.3125 -110.93 338.3125 -110.25 338.3125 C-109.98445312 337.60738281 -109.71890625 336.90226562 -109.4453125 336.17578125 C-108.18501033 333.15682214 -106.71042006 330.36064924 -105.125 327.5 C-104.58617187 326.52417969 -104.04734375 325.54835938 -103.4921875 324.54296875 C-103.08226562 323.80691406 -102.67234375 323.07085937 -102.25 322.3125 C-107.34442659 324.22290997 -111.21248809 326.59834042 -115.453125 330.0078125 C-121.04660097 334.06916244 -130.61931328 333.19121169 -137.25 332.3125 C-142.57912499 330.49195568 -147.04755786 327.72933583 -151.7578125 324.69921875 C-154.31363192 323.27709353 -156.53890923 322.60532565 -159.375 321.9375 C-163.97799752 320.61747248 -163.97799752 320.61747248 -166.3125 318 C-169.65245476 308.42546303 -169.79730224 295.834206 -166.25 286.3125 C-162.71838503 283.95809002 -161.46322772 284.15150208 -157.3125 284.3125 C-141.73299506 284.51976614 -128.22467075 279.57158134 -114.375 272.8125 C-113.38242187 272.33941406 -112.38984375 271.86632812 -111.3671875 271.37890625 C-106.39091826 268.97725759 -101.78387302 266.46219995 -97.25 263.3125 C-95.59153901 262.61084343 -93.93240487 261.91031005 -92.26171875 261.23828125 C-88.05958145 259.30448215 -84.1733468 256.7517639 -80.25 254.3125 C-82.45735912 252.61924803 -84.57463373 251.12804902 -87 249.75 C-87.7425 249.275625 -88.485 248.80125 -89.25 248.3125 C-89.25 247.6525 -89.25 246.9925 -89.25 246.3125 C-89.95511719 246.06628906 -90.66023437 245.82007813 -91.38671875 245.56640625 C-101.07504979 241.32363099 -111.46462237 232.69565707 -115.75 222.875 C-116.84896538 215.04487169 -117.5866398 205.49641443 -113.12109375 198.55859375 C-108.85748879 194.11687475 -103.51032549 193.23880346 -97.72143555 191.984375 C-86.22793674 189.35638853 -73.27440289 182.86470157 -64.25 175.3125 C-64.25 174.3225 -64.25 173.3325 -64.25 172.3125 C-64.96285156 172.06242188 -65.67570313 171.81234375 -66.41015625 171.5546875 C-83.12427393 164.24369792 -103.07648823 144.86933068 -112.25 129.3125 C-113.12890625 125.56640625 -113.12890625 125.56640625 -113.25 122.3125 C-110.69760122 119.76010122 -109.5864779 119.99774416 -106.03515625 119.8203125 C-104.96579834 119.75739014 -103.89644043 119.69446777 -102.79467773 119.62963867 C-101.64555908 119.56623291 -100.49644043 119.50282715 -99.3125 119.4375 C-87.963779 118.68226677 -77.25574956 117.13358609 -66.25 114.3125 C-65.57308105 114.14943359 -64.89616211 113.98636719 -64.19873047 113.81835938 C-54.53433776 111.4672447 -45.27197437 107.98068062 -36.0625 104.25 C-34.98661621 103.84579834 -33.91073242 103.44159668 -32.80224609 103.02514648 C-25.57793044 99.96686425 -22.36081507 96.69148595 -19.28979492 89.45507812 C-18.04837632 85.70313159 -17.26379257 82.06389041 -16.703125 78.15673828 C-15.8419056 72.75091609 -14.22120402 67.51617172 -12.75 62.25 C-8.4047029 47.51387035 -8.4047029 47.51387035 -7.25 32.3125 C-12.28984962 32.79248568 -15.16817112 34.38423145 -19.25 37.3125 C-22.34014393 39.1853145 -24.62666341 39.96284247 -28.25 39.3125 C-31.3559509 35.3466677 -31.60668441 32.26265669 -31.5 27.3125 C-31.48453125 26.11625 -31.4690625 24.92 -31.453125 23.6875 C-31.00005149 16.15950937 -31.00005149 16.15950937 -28.6484375 13.50390625 C-27.98070312 12.96636719 -27.31296875 12.42882812 -26.625 11.875 C-25.90183594 11.28460938 -25.17867187 10.69421875 -24.43359375 10.0859375 C-23.35271484 9.20808594 -23.35271484 9.20808594 -22.25 8.3125 C-21.33927734 7.46558594 -21.33927734 7.46558594 -20.41015625 6.6015625 C-19.84167969 6.07304687 -19.27320313 5.54453125 -18.6875 5 C-18.19121094 4.52949219 -17.69492187 4.05898438 -17.18359375 3.57421875 C-11.97473672 0.175308 -6.01769731 -0.04718422 0 0 Z M-39.25 289.3125 C-42.33001481 292.9452004 -45.25 297.39515913 -45.25 302.3125 C-45.91 302.3125 -46.57 302.3125 -47.25 302.3125 C-51.8802123 308.53389981 -55.08778824 315.8557245 -58.44140625 322.8203125 C-59.77874668 325.40256378 -61.13163943 327.69499338 -62.72265625 330.10546875 C-65.61308733 334.65312408 -67.38275441 339.42097535 -69.125 344.5 C-69.4446875 345.37591797 -69.764375 346.25183594 -70.09375 347.15429688 C-70.39023437 348.00443359 -70.68671875 348.85457031 -70.9921875 349.73046875 C-71.2588623 350.49125732 -71.52553711 351.2520459 -71.80029297 352.03588867 C-72.33326841 354.73404067 -71.9401376 356.67221408 -71.25 359.3125 C-67.19348612 358.79135065 -65.19227373 357.74926965 -62.25 354.9375 C-60.03765708 352.89118657 -58.17829268 351.2708097 -55.5625 349.75 C-52.99949016 348.32587347 -52.99949016 348.32587347 -50.8125 345.375 C-48.25 342.3125 -48.25 342.3125 -45.375 340.4375 C-42.63281528 338.57281439 -41.08923516 337.1114841 -39 334.625 C-28.03179976 321.71276427 -14.44096772 312.09183969 2.75 310.3125 C12.0793732 309.88376042 21.41761358 310.05676428 30.75 310.3125 C27.12562702 305.4800027 23.67499058 302.65311463 18.375 299.8125 C17.67455566 299.42940674 16.97411133 299.04631348 16.25244141 298.65161133 C-0.47347018 289.70270399 -20.83946429 280.32485077 -39.25 289.3125 Z M0.25 358.875 C-5.42434242 362.34253612 -10.98973129 365.04229267 -17.25 367.3125 C-19.42079978 368.19827092 -21.58738798 369.09442225 -23.75 370 C-24.7503125 370.41636719 -25.750625 370.83273437 -26.78125 371.26171875 C-28.28928307 371.90358726 -29.78407806 372.57953903 -31.25 373.3125 C-33.30859375 373.48046875 -33.30859375 373.48046875 -35.6875 373.5 C-36.86119141 373.52126953 -36.86119141 373.52126953 -38.05859375 373.54296875 C-40.25 373.3125 -40.25 373.3125 -43.25 371.3125 C-46.31612399 370.99394624 -46.31612399 370.99394624 -49.6875 371.0625 C-50.82058594 371.05734375 -51.95367188 371.0521875 -53.12109375 371.046875 C-56.08525691 371.29851432 -57.75313671 371.76653059 -60.25 373.3125 C-59.92386719 373.78558594 -59.59773437 374.25867188 -59.26171875 374.74609375 C-56.39496924 379.08427222 -54.45122597 383.15553625 -52.94140625 388.125 C-51.93846048 391.29816175 -50.60675757 394.27594734 -49.25 397.3125 C-37.64559867 395.59237856 -27.57416468 390.5450685 -17.0625 385.546875 C-13.24896772 383.87315805 -10.02918745 383.14995658 -5.875 383.0625 C-5.14539063 383.03671875 -4.41578125 383.0109375 -3.6640625 382.984375 C4.40653347 384.08134921 8.96068413 390.35011044 13.75 396.3125 C17.29502268 401.30737829 19.86438822 405.55633866 20.0625 411.8125 C20.11857422 412.97265625 20.11857422 412.97265625 20.17578125 414.15625 C19.75 416.3125 19.75 416.3125 18.33203125 417.98046875 C14.44424619 419.98611883 10.41461822 420.4309124 6.125 421.125 C-0.71369778 422.35646402 -6.01558172 423.7233252 -11.7890625 427.734375 C-21.39227559 433.89262593 -33.28778416 436.6691288 -44.25 439.3125 C-44.70506043 446.89684043 -43.16839874 453.9868012 -41.25 461.3125 C-39.62298805 462.93951195 -37.87646295 462.56190591 -35.625 462.625 C-27.17058464 462.58061987 -19.21689391 459.9681313 -11.25 457.3125 C-4.51972062 456.58328678 1.33377606 456.98605955 6.75 461.3125 C8.91471942 463.84808383 10.88951117 466.43099711 12.79296875 469.16796875 C15.08213268 471.67645377 16.42474679 472.01960205 19.75 472.3125 C23.28459553 465.56647196 23.92909269 458.5465186 24.875 451.0625 C25.04386719 449.80308594 25.21273437 448.54367187 25.38671875 447.24609375 C27.07103301 434.47448249 28.00250124 421.80679999 28.375 408.9375 C28.40768982 407.81299438 28.40768982 407.81299438 28.44104004 406.66577148 C30.58789753 376.90311096 30.58789753 376.90311096 22.75 349.3125 C14.60721181 348.24392813 6.89317231 354.8069199 0.25 358.875 Z " fill="#0E0B0C" transform="translate(924.25,24.6875)"/>
<path d="M0 0 C1.17783051 -0.01210762 1.17783051 -0.01210762 2.37945557 -0.02445984 C4.0506367 -0.03831437 5.7218463 -0.04903038 7.39306641 -0.05688477 C9.07837391 -0.06829587 10.76364848 -0.08857061 12.44873047 -0.1184082 C28.58503425 -0.40399238 40.82123188 2.53888392 55.203125 10.23828125 C56.76399351 10.97093381 58.32628438 11.70057183 59.890625 12.42578125 C63.203125 14.23828125 63.203125 14.23828125 64.203125 17.23828125 C65.51565382 17.94502754 66.85591217 18.60012781 68.203125 19.23828125 C73.6350348 22.43426539 76.61246762 25.45912249 79.203125 31.23828125 C80.1270596 36.28014955 80.39533088 41.24857258 80.390625 46.36328125 C80.39126953 47.09667725 80.39191406 47.83007324 80.39257812 48.58569336 C80.32873387 55.27265354 79.4826317 61.66938526 78.203125 68.23828125 C79.90855469 68.36783203 79.90855469 68.36783203 81.6484375 68.5 C105.80081056 70.59803719 105.80081056 70.59803719 114.203125 78.23828125 C114.533125 79.22828125 114.863125 80.21828125 115.203125 81.23828125 C115.863125 81.89828125 116.523125 82.55828125 117.203125 83.23828125 C120.94060846 89.35416328 122.35247858 93.42085209 122.453125 100.67578125 C122.47890625 101.78824219 122.5046875 102.90070313 122.53125 104.046875 C122.15651265 107.69164187 121.51558296 109.40600605 119.203125 112.23828125 C114.23373323 115.49540174 108.7392463 116.31133843 103.015625 117.48828125 C89.67202807 120.45479228 89.67202807 120.45479228 79.76953125 129.37109375 C78.6931705 131.63421122 77.92235972 133.83949282 77.203125 136.23828125 C76.92082031 137.01816406 76.63851563 137.79804688 76.34765625 138.6015625 C73.7391852 145.88813655 73.04912971 152.53851669 73.203125 160.23828125 C74.04875 160.44582031 74.894375 160.65335938 75.765625 160.8671875 C84.9801393 163.36976582 91.36958556 166.5924239 96.703125 174.67578125 C98.75095783 179.53938423 99.05495059 183.29355966 97.61328125 188.27734375 C94.5635432 195.5573636 88.17768146 199.68463986 81.453125 203.36328125 C78.08038752 205.30909133 75.87259464 207.42831321 73.203125 210.23828125 C68.55447635 214.23828125 68.55447635 214.23828125 66.203125 214.23828125 C65.89375 214.87765625 65.584375 215.51703125 65.265625 216.17578125 C64.203125 218.23828125 64.203125 218.23828125 63.203125 219.23828125 C62.83551769 221.56646089 62.50070919 223.90011975 62.203125 226.23828125 C73.3504481 224.51114385 84.48893123 222.74750392 95.58984375 220.7421875 C96.29998123 220.61399124 97.01011871 220.48579498 97.74177551 220.35371399 C99.18847862 220.0924186 100.63517966 219.83111179 102.08187866 219.5697937 C113.7487497 217.46474497 125.37790656 215.58179558 137.15942383 214.21508789 C150.81674637 212.64741999 150.81674637 212.64741999 164.21875 209.671875 C183.84985182 205.38240197 206.49195312 213.08718471 222.828125 223.39453125 C226.85798325 226.52297384 229.95625567 230.25080392 231.203125 235.23828125 C231.12144801 240.21150263 230.38504672 244.72897637 228.203125 249.23828125 C227.213125 249.23828125 226.223125 249.23828125 225.203125 249.23828125 C225.203125 249.89828125 225.203125 250.55828125 225.203125 251.23828125 C219.23226375 252.74558541 213.55866454 253.57123024 207.41015625 253.765625 C205.72687995 253.83411188 204.04361204 253.90280504 202.36035156 253.97167969 C201.05330261 254.0209259 201.05330261 254.0209259 199.71984863 254.07116699 C170.90593807 255.18584768 142.74096599 258.33350742 114.33459473 263.20965576 C110.0214626 263.9471311 105.7043651 264.5998186 101.37109375 265.2109375 C95.10184211 266.16373064 89.13971669 267.77499462 83.078125 269.61328125 C82.08425781 269.90460938 81.09039062 270.1959375 80.06640625 270.49609375 C74.18455367 272.24454537 68.4253464 274.21448585 62.67456055 276.35253906 C59.5590619 277.46910817 56.3855737 278.33342949 53.203125 279.23828125 C40.10770611 284.28363282 27.22704135 290.52089792 15.3125 297.9375 C13.37066035 299.13496778 11.40033431 300.22292433 9.390625 301.30078125 C6.13635699 303.27886573 3.84449738 305.52144109 1.203125 308.23828125 C0.543125 308.23828125 -0.116875 308.23828125 -0.796875 308.23828125 C-1.168125 309.07359375 -1.168125 309.07359375 -1.546875 309.92578125 C-2.796875 312.23828125 -2.796875 312.23828125 -4.67578125 314.3203125 C-7.40709186 318.07775086 -8.60900352 321.83709253 -9.984375 326.23828125 C-10.24412109 327.03234375 -10.50386719 327.82640625 -10.77148438 328.64453125 C-12.00890752 332.48150223 -13.13001109 336.25316678 -13.796875 340.23828125 C-13.19999878 339.59596558 -13.19999878 339.59596558 -12.59106445 338.94067383 C-10.76479911 336.97647704 -8.93709853 335.0136212 -7.109375 333.05078125 C-6.48353516 332.37724609 -5.85769531 331.70371094 -5.21289062 331.00976562 C-1.80389964 327.35090096 1.65110607 323.75962644 5.203125 320.23828125 C5.8115625 319.59503906 6.42 318.95179688 7.046875 318.2890625 C10.30953349 314.86481008 12.72399268 312.90195897 17.203125 311.23828125 C17.88867448 309.91455766 18.55312661 308.57981929 19.203125 307.23828125 C23.06672038 302.45931096 28.00624769 298.68511884 32.828125 294.92578125 C33.37831299 294.49313965 33.92850098 294.06049805 34.49536133 293.61474609 C41.90997372 287.94691504 48.41825663 287.83635193 57.42822266 287.81274414 C59.53802246 287.8010044 61.64473682 287.75193259 63.75390625 287.70117188 C73.83457946 287.58037885 81.83239439 289.48873754 91.203125 293.23828125 C92.04794434 293.5638501 92.89276367 293.88941895 93.76318359 294.22485352 C95.76542192 295.01990653 97.73487368 295.86303758 99.703125 296.73828125 C100.33992188 297.00769531 100.97671875 297.27710938 101.6328125 297.5546875 C106.28337814 299.59524181 110.21955052 302.07606233 114.203125 305.23828125 C114.203125 305.89828125 114.203125 306.55828125 114.203125 307.23828125 C114.863125 307.56828125 115.523125 307.89828125 116.203125 308.23828125 C121.32990033 315.82590874 120.31373872 325.09413916 119.75488281 333.81884766 C117.87835236 364.81270277 123.34865255 395.65415358 128.01701355 426.18887329 C129.08784038 433.27510698 129.98368773 440.36976121 130.78051758 447.49145508 C131.16221524 450.87557645 131.58012282 454.25187665 132.01953125 457.62890625 C136.6814958 493.87651367 138.29046227 532.37849455 130.203125 568.23828125 C129.97496094 569.47384766 129.97496094 569.47384766 129.7421875 570.734375 C127.53565713 582.41233288 122.62701304 590.9248187 114.203125 599.23828125 C113.65914063 599.80417969 113.11515625 600.37007812 112.5546875 600.953125 C109.06126147 604.27490871 104.51709033 603.70731157 99.94506836 603.76391602 C95.72200489 603.65418008 93.21471126 603.25578489 90.265625 600.17578125 C89.23488487 598.8710469 88.21403413 597.55844021 87.203125 596.23828125 C85.98084965 595.10350066 84.72913827 593.99978039 83.453125 592.92578125 C80.20797193 590.13082283 77.04200008 587.26362219 73.890625 584.36328125 C69.30936902 580.18177475 64.58866857 576.22629515 59.765625 572.328125 C55.49433891 568.84468284 51.36462091 565.20167672 47.28515625 561.49609375 C43.72104087 558.29479251 40.12885837 555.46161471 36.140625 552.80078125 C32.00739933 549.98411138 28.95643375 546.95501258 25.8046875 543.09375 C24.25834304 541.30225338 22.68198977 539.88866506 20.828125 538.42578125 C18.203125 536.23828125 18.203125 536.23828125 17.203125 533.23828125 C16.543125 532.57828125 15.883125 531.91828125 15.203125 531.23828125 C11.98280494 526.30045716 9.82698308 521.25196794 7.953125 515.67578125 C5.81681467 509.85195438 3.18059933 506.66982728 -1.7109375 502.921875 C-3.85087397 501.19469781 -5.31385014 499.5478327 -6.796875 497.23828125 C-6.796875 496.57828125 -6.796875 495.91828125 -6.796875 495.23828125 C-7.456875 494.90828125 -8.116875 494.57828125 -8.796875 494.23828125 C-8.94125 493.57828125 -9.085625 492.91828125 -9.234375 492.23828125 C-9.42 491.57828125 -9.605625 490.91828125 -9.796875 490.23828125 C-10.786875 489.90828125 -11.776875 489.57828125 -12.796875 489.23828125 C-14.29885142 486.79348003 -15.60328911 484.43068476 -16.859375 481.86328125 C-17.21717041 481.13882812 -17.57496582 480.414375 -17.94360352 479.66796875 C-20.67039885 473.93884159 -22.18485594 468.5656168 -22.796875 462.23828125 C-22.96832031 461.06136719 -23.13976562 459.88445312 -23.31640625 458.671875 C-25.60872637 440.27735128 -26.08724598 415.23745645 -14.8203125 399.47265625 C-9.29015468 392.51720002 -3.21596556 385.25572806 4.203125 380.23828125 C4.863125 380.23828125 5.523125 380.23828125 6.203125 380.23828125 C6.533125 379.24828125 6.863125 378.25828125 7.203125 377.23828125 C8.99609375 376.09765625 8.99609375 376.09765625 11.390625 374.98828125 C14.54386244 373.50680331 17.66625666 372.00907095 20.734375 370.359375 C21.33999268 370.03936523 21.94561035 369.71935547 22.56958008 369.38964844 C24.31908737 368.46364565 26.06394805 367.5288801 27.80859375 366.59375 C34.71424402 363.83625789 40.6414231 365.43126435 47.203125 368.23828125 C53.89913982 372.10136672 59.80423505 377.20377357 61.93359375 384.8671875 C64.3223173 400.19993442 64.02477735 415.18928753 60.203125 430.23828125 C60.00589844 431.03234375 59.80867188 431.82640625 59.60546875 432.64453125 C59.47269531 433.17046875 59.33992188 433.69640625 59.203125 434.23828125 C59.84378906 434.72296875 60.48445313 435.20765625 61.14453125 435.70703125 C66.26148679 439.67248115 70.73732475 443.64687758 74.828125 448.671875 C76.13827269 450.36300667 76.13827269 450.36300667 78.203125 451.23828125 C79.45051253 453.59772653 80.59729581 455.93878545 81.703125 458.36328125 C82.01121094 459.01554687 82.31929688 459.6678125 82.63671875 460.33984375 C86.59128482 468.89392657 89.22997188 477.88749437 86.265625 487.17578125 C80.14011355 493.3012927 70.11932163 494.74509702 62.015625 496.73828125 C59.6103612 497.34510346 57.20540944 497.95316395 54.80078125 498.5625 C53.65883301 498.85044434 52.51688477 499.13838867 51.34033203 499.43505859 C45.58995252 500.90733475 39.89656516 502.56046578 34.203125 504.23828125 C31.87079132 504.90849894 29.53702451 505.57352629 27.203125 506.23828125 C27.32490188 508.15294492 27.32490188 508.15294492 28.203125 510.23828125 C41.13648329 518.90923332 55.86253274 524.5202319 71.015625 527.61328125 C72.37820435 527.90187012 72.37820435 527.90187012 73.76831055 528.19628906 C78.79191523 529.15263558 82.47644576 529.68695338 87.203125 527.23828125 C89.69514507 523.50025114 89.46106566 521.54992353 89.46875 517.08203125 C89.47297974 516.00047256 89.47297974 516.00047256 89.47729492 514.89706421 C89.48160884 512.51061138 89.46883161 510.12468197 89.453125 507.73828125 C89.45002319 506.9118512 89.44692139 506.08542114 89.44372559 505.23394775 C89.26140996 463.51272069 84.90051773 421.95098284 79.8659668 380.57226562 C79.66144694 378.88157079 79.45741334 377.19081704 79.25390625 375.5 C79.15663742 374.69199951 79.05936859 373.88399902 78.95915222 373.05151367 C78.40276897 368.30849841 77.99148645 363.58073254 77.69921875 358.8125 C77.27257326 352.21419853 76.24736157 345.84250282 74.953125 339.36328125 C74.66501953 337.77 74.66501953 337.77 74.37109375 336.14453125 C73.20501589 330.23346991 71.73868107 325.6704455 68.20019531 320.75732422 C67.203125 319.23828125 67.203125 319.23828125 67.203125 317.23828125 C59.86919042 319.92142805 55.89178494 325.97742069 52.390625 332.73828125 C50.08739821 337.06311758 46.33620916 339.90637786 42.640625 343.02734375 C40.1345969 345.17536048 40.1345969 345.17536048 38.171875 347.83203125 C36.14599274 350.30810957 34.47088172 351.55411163 31.703125 353.11328125 C28.98845898 354.64663727 26.31892228 356.16083953 23.7265625 357.89453125 C10.24558856 366.6432459 -6.31681536 370.55353301 -21.796875 374.23828125 C-21.84658447 374.80788574 -21.89629395 375.37749023 -21.94750977 375.96435547 C-22.39850083 380.81190645 -22.97400309 385.61911191 -23.69921875 390.43359375 C-28.78384912 424.19240587 -32.42291159 460.56800378 -24.796875 494.23828125 C-24.54236572 495.37088379 -24.54236572 495.37088379 -24.28271484 496.52636719 C-23.44403218 500.21534992 -22.57413959 503.89441942 -21.6640625 507.56640625 C-20.10489425 514.16828981 -19.63731609 520.29914734 -19.62890625 527.0546875 C-19.62557785 527.98876938 -19.62224945 528.92285126 -19.61882019 529.88523865 C-19.61377437 531.85276804 -19.61141114 533.82030594 -19.61157227 535.7878418 C-19.60937976 538.79425081 -19.59118272 541.80029614 -19.57226562 544.80664062 C-19.5693324 546.722655 -19.56734713 548.63867111 -19.56640625 550.5546875 C-19.55922073 551.45063126 -19.55203522 552.34657501 -19.54463196 553.26966858 C-19.58030154 563.02170779 -19.58030154 563.02170779 -22.796875 566.23828125 C-25.921875 566.80078125 -25.921875 566.80078125 -29.796875 566.23828125 C-39.4550689 559.05432129 -45.26936822 544.28767749 -48.796875 533.23828125 C-49.05984375 532.52800781 -49.3228125 531.81773437 -49.59375 531.0859375 C-54.14242009 518.62350976 -55.91921293 505.05005378 -56 491.83203125 C-56.01058945 490.65477478 -56.01058945 490.65477478 -56.02139282 489.45373535 C-56.2823543 451.53227781 -52.60033902 414.41153713 -47.73208618 376.8356781 C-47.12352775 372.07204137 -46.60071696 367.3269371 -46.2578125 362.53515625 C-45.83595364 356.84211448 -44.78727623 351.3676336 -43.546875 345.80078125 C-43.32797607 344.80377197 -43.10907715 343.8067627 -42.88354492 342.77954102 C-41.38651935 336.21196217 -39.55226378 330.06445489 -36.91015625 323.859375 C-35.70814629 321.02937961 -34.737822 318.16423973 -33.796875 315.23828125 C-33.136875 315.23828125 -32.476875 315.23828125 -31.796875 315.23828125 C-31.54164063 314.50738281 -31.28640625 313.77648437 -31.0234375 313.0234375 C-25.54475102 300.58298062 -9.83179097 290.46298047 1.8984375 284.4609375 C5.10938146 282.75750452 8.17773707 280.841227 11.265625 278.92578125 C11.85110107 278.56323242 12.43657715 278.20068359 13.03979492 277.82714844 C14.42857964 276.9658159 15.81600105 276.10228581 17.203125 275.23828125 C8.83750561 277.97458615 0.76429543 281.40146505 -7.3515625 284.796875 C-9.36953276 285.64112786 -11.38874339 286.482447 -13.41088867 287.31665039 C-21.84947731 290.80712298 -30.19558971 294.48773633 -38.52929688 298.22070312 C-44.36662344 300.81144707 -50.21746546 303.14761024 -56.23608398 305.2800293 C-60.86437703 307.0119437 -65.24896748 309.2290847 -69.67578125 311.4140625 C-72.90323311 312.97689169 -75.87882961 314.26156791 -79.34375 315.24609375 C-83.31169683 316.38620517 -86.66225106 318.06795733 -90.296875 319.98828125 C-96.68814237 323.27837264 -103.10142039 326.01325603 -109.80859375 328.60546875 C-114.44974966 330.45254319 -118.92593113 332.62882339 -123.421875 334.80078125 C-128.71356892 337.35687621 -133.96072859 339.77475977 -139.484375 341.80078125 C-145.20565822 343.90516129 -150.56885032 346.5075003 -155.97924805 349.29711914 C-160.09215704 351.41528051 -164.24804595 353.36579287 -168.48535156 355.22290039 C-170.81150094 356.24470597 -173.12522325 357.29096855 -175.4375 358.34375 C-176.97395833 359.03776042 -178.51041667 359.73177083 -180.046875 360.42578125 C-180.82289063 360.78091797 -181.59890625 361.13605469 -182.3984375 361.50195312 C-183.53152344 362.01145508 -183.53152344 362.01145508 -184.6875 362.53125 C-185.35813477 362.83571045 -186.02876953 363.1401709 -186.71972656 363.45385742 C-193.21800648 365.90789755 -200.0779031 365.49546898 -206.921875 365.55078125 C-208.09492188 365.57978516 -209.26796875 365.60878906 -210.4765625 365.63867188 C-222.87554228 365.72822006 -233.06057553 361.97331851 -242.796875 354.23828125 C-247.12930348 349.88705698 -248.07670631 346.00193592 -248.171875 339.92578125 C-248.06420897 336.69165939 -247.82342372 334.31792741 -246.796875 331.23828125 C-241.22354167 331.99828125 -241.22354167 331.99828125 -238.796875 333.36328125 C-235.82466878 334.66362147 -233.92577762 333.99236929 -230.796875 333.23828125 C-227.71960218 331.61799432 -227.71960218 331.61799432 -224.671875 329.55078125 C-218.58296952 325.646986 -212.33973573 322.33335418 -205.796875 319.23828125 C-204.88164062 318.79613281 -203.96640625 318.35398437 -203.0234375 317.8984375 C-197.37774413 315.23735853 -191.70447357 313.17126069 -185.765625 311.265625 C-181.90340095 309.9290922 -178.25732964 308.25018085 -174.55859375 306.51953125 C-166.49167262 302.77702753 -158.20779324 299.62188538 -149.87158203 296.54370117 C-144.16924731 294.42011528 -138.61040698 292.03921147 -133.03125 289.609375 C-129.25867241 288.01013015 -125.44240402 286.60455149 -121.58203125 285.234375 C-113.98475942 282.51725815 -106.48386909 279.61486763 -99.1484375 276.25390625 C-96.36076734 275.0499291 -93.52432272 274.02932057 -90.671875 272.98828125 C-83.61544379 270.30914557 -77.12160612 266.85511366 -70.53662109 263.20068359 C-68.0317044 261.81499995 -65.50596654 260.46832551 -62.984375 259.11328125 C-56.7828309 255.72050824 -50.67967667 252.16014903 -44.796875 248.23828125 C-45.52688721 247.99182861 -46.25689941 247.74537598 -47.0090332 247.49145508 C-50.377828 246.35041597 -53.74358534 245.20065308 -57.109375 244.05078125 C-58.25728516 243.66341797 -59.40519531 243.27605469 -60.58789062 242.87695312 C-81.26197356 235.79036945 -81.26197356 235.79036945 -88.796875 229.23828125 C-89.984375 226.80078125 -89.984375 226.80078125 -89.796875 224.23828125 C-84.08857496 212.82168116 -71.14726355 203.23222309 -60.06640625 197.44921875 C-57.63057344 196.14954892 -55.32171923 194.70704301 -52.984375 193.23828125 C-47.48782579 189.9251772 -41.75093695 187.59832845 -35.796875 185.23828125 C-32.71038121 183.97509363 -29.62895275 182.69969818 -26.546875 181.42578125 C-25.06263682 180.81477169 -23.57827305 180.2040671 -22.09375 179.59375 C-21.00578125 179.14644531 -19.9178125 178.69914063 -18.796875 178.23828125 C-18.796875 176.58828125 -18.796875 174.93828125 -18.796875 173.23828125 C-19.85261719 173.10873047 -19.85261719 173.10873047 -20.9296875 172.9765625 C-33.33951435 171.2106733 -44.54899572 166.63267233 -55.796875 161.23828125 C-55.796875 160.57828125 -55.796875 159.91828125 -55.796875 159.23828125 C-56.50328125 159.01269531 -57.2096875 158.78710938 -57.9375 158.5546875 C-61.38138381 156.96918361 -63.83805321 154.76155497 -66.546875 152.17578125 C-67.06620605 151.68988525 -67.58553711 151.20398926 -68.12060547 150.70336914 C-72.78153177 146.31791975 -77.3172286 141.80832411 -81.796875 137.23828125 C-82.456875 136.57828125 -83.116875 135.91828125 -83.796875 135.23828125 C-85.86151119 132.61914277 -87.82264287 129.92584917 -89.796875 127.23828125 C-90.44849609 126.40490234 -90.44849609 126.40490234 -91.11328125 125.5546875 C-93.06644244 122.93459322 -93.83517843 121.67877073 -93.546875 118.36328125 C-93.175625 117.31140625 -93.175625 117.31140625 -92.796875 116.23828125 C-89.62027124 115.17941333 -87.02629393 114.9725466 -83.6875 114.7734375 C-82.46506592 114.69714111 -81.24263184 114.62084473 -79.9831543 114.54223633 C-78.68418213 114.46255615 -77.38520996 114.38287598 -76.046875 114.30078125 C-70.96246309 113.96227542 -65.87973366 113.59922846 -60.796875 113.23828125 C-59.94722168 113.18091797 -59.09756836 113.12355469 -58.22216797 113.06445312 C-44.96101087 112.09778054 -34.56511891 106.76050296 -23.00390625 100.6875 C-22.39634491 100.36840668 -21.78878357 100.04931335 -21.16281128 99.72055054 C-20.54511871 99.39607941 -19.92742615 99.07160828 -19.29101562 98.73730469 C-18.66461182 98.40839233 -18.03820801 98.07947998 -17.39282227 97.74060059 C-16.12263851 97.07349819 -14.85278034 96.4057755 -13.58325195 95.73742676 C12.12893263 82.23828125 12.12893263 82.23828125 21.203125 82.23828125 C21.13358949 77.72116201 21.0453177 73.20488693 20.94067383 68.68847656 C20.90769545 67.15634916 20.87958189 65.62410816 20.85668945 64.09179688 C20.6250038 48.98786438 18.43036886 36.46319445 7.88671875 25.09765625 C6.19095696 23.22484277 4.71149373 21.26310232 3.203125 19.23828125 C0.04091435 15.75580916 0.04091435 15.75580916 -3.859375 13.23828125 C-6.73286033 11.75519205 -8.07208697 9.94866244 -9.796875 7.23828125 C-10.046875 3.92578125 -10.046875 3.92578125 -9.796875 1.23828125 C-6.69615248 -0.31208001 -3.40554894 0.03331604 0 0 Z M2.203125 432.23828125 C2.203125 432.89828125 2.203125 433.55828125 2.203125 434.23828125 C1.584375 434.48578125 0.965625 434.73328125 0.328125 434.98828125 C-2.14756187 436.44456764 -2.74812502 437.61640631 -3.796875 440.23828125 C-4.456875 440.23828125 -5.116875 440.23828125 -5.796875 440.23828125 C-10.11145643 448.61784023 -9.73269392 461.6420841 -8.2109375 470.7421875 C-5.91667397 477.47790992 -1.79863981 483.40319562 2.203125 489.23828125 C2.863125 490.22828125 3.523125 491.21828125 4.203125 492.23828125 C4.863125 492.23828125 5.523125 492.23828125 6.203125 492.23828125 C6.203125 491.57828125 6.203125 490.91828125 6.203125 490.23828125 C7.08097656 489.99851562 7.95882812 489.75875 8.86328125 489.51171875 C12.51961935 488.11760621 14.70502242 486.42820542 17.640625 483.86328125 C20.76556833 481.19876614 23.67158923 478.80305425 27.328125 476.92578125 C30.23156017 475.53023578 30.23156017 475.53023578 31.328125 473.36328125 C31.06861472 468.95160645 28.92231144 465.93854173 25.828125 462.92578125 C19.84371337 456.79888363 17.60582573 450.69499649 17.203125 442.23828125 C16.543125 442.23828125 15.883125 442.23828125 15.203125 442.23828125 C15.5125 440.41296875 15.5125 440.41296875 15.828125 438.55078125 C16.26796368 434.90270752 16.31477916 432.40576248 14.203125 429.23828125 C9.37368795 426.89255468 6.29093978 429.59322463 2.203125 432.23828125 Z " fill="#0F0C0D" transform="translate(281.796875,-0.23828125)"/>
<path d="M0 0 C0.66 0 1.32 0 2 0 C2 15.51 2 31.02 2 47 C1.01 47.495 1.01 47.495 0 48 C-0.16801189 41.48568186 -0.32794171 34.97120174 -0.48217773 28.45654297 C-0.53564069 26.23904904 -0.59097328 24.02159938 -0.64819336 21.80419922 C-0.72998452 18.62216745 -0.8051129 15.44003851 -0.87890625 12.2578125 C-0.90594131 11.26194122 -0.93297638 10.26606995 -0.96083069 9.24002075 C-0.98092697 8.31921722 -1.00102325 7.3984137 -1.02172852 6.44970703 C-1.04171402 5.6369632 -1.06169952 4.82421936 -1.08229065 3.98684692 C-1 2 -1 2 0 0 Z " fill="#565454" transform="translate(834,404)"/>
<path d="M0 0 C0.66 0.33 1.32 0.66 2 1 C0.94643208 2.27824811 -0.11832783 3.54727493 -1.1875 4.8125 C-1.77917969 5.52019531 -2.37085938 6.22789062 -2.98046875 6.95703125 C-5 9 -5 9 -7.42578125 10.41796875 C-10.5871533 12.36084535 -12.58416584 14.69159278 -15 17.5 C-18.06688578 21.06525472 -20.7064864 23.96928411 -25 26 C-25.66 25.67 -26.32 25.34 -27 25 C-23.20668818 20.91153135 -20.29233932 17.96572603 -15 16 C-14.32430167 14.67122086 -13.65893174 13.33717283 -13 12 C-9.12202443 7.53233227 -4.59842865 3.70117428 0 0 Z " fill="#585557" transform="translate(314,295)"/>
<path d="M0 0 C0.66 0.33 1.32 0.66 2 1 C0.56974806 2.65213589 -0.86945545 4.29652589 -2.3125 5.9375 C-3.11300781 6.85402344 -3.91351563 7.77054688 -4.73828125 8.71484375 C-7 11 -7 11 -10 12 C-10.33 13.98 -10.66 15.96 -11 18 C-11.66 18 -12.32 18 -13 18 C-12.47359182 14.01038009 -11.47700671 11.94042463 -8.75 9 C-8.12480469 8.319375 -7.49960938 7.63875 -6.85546875 6.9375 C-4.60386413 4.58635076 -2.33713814 2.26631577 0 0 Z " fill="#393636" transform="translate(205,209)"/>
<path d="M0 0 C-1.625 5.75 -1.625 5.75 -5 8 C-4.34 6.02 -3.68 4.04 -3 2 C-5.31 2.66 -7.62 3.32 -10 4 C-10 3.34 -10 2.68 -10 2 C-6.5980513 -0.09350689 -3.94727588 -0.17942163 0 0 Z " fill="#504E4E" transform="translate(825,345)"/>
<path d="M0 0 C0 3.96130371 -1.34877125 4.82914401 -4 7.6875 C-4.7425 8.49574219 -5.485 9.30398438 -6.25 10.13671875 C-6.8275 10.75160156 -7.405 11.36648438 -8 12 C-9.32 11.67 -10.64 11.34 -12 11 C-11.13375 10.484375 -10.2675 9.96875 -9.375 9.4375 C-5.53798261 6.90689567 -2.83324118 3.57671582 0 0 Z " fill="#6C6A6B" transform="translate(876,366)"/>
<path d="M0 0 C0 3.73928499 -0.91959602 4.40902253 -3.375 7.125 C-4.31472656 8.18074219 -4.31472656 8.18074219 -5.2734375 9.2578125 C-7 11 -7 11 -9 12 C-7.18690951 6.71181939 -4.67111564 3.11407709 0 0 Z " fill="#3F3C3D" transform="translate(754,449)"/>
<path d="M0 0 C0.66 0.33 1.32 0.66 2 1 C-0.95668756 5.47726973 -3.05848696 8.59983652 -8 11 C-6.63629701 8.00779732 -5.05091917 5.70973471 -2.875 3.25 C-2.33617187 2.63640625 -1.79734375 2.0228125 -1.2421875 1.390625 C-0.62730469 0.70226562 -0.62730469 0.70226562 0 0 Z " fill="#4D4A4B" transform="translate(794,457)"/>
<path d="M0 0 C0 0.66 0 1.32 0 2 C-2.64 2.33 -5.28 2.66 -8 3 C-8 3.66 -8 4.32 -8 5 C-8.66 5 -9.32 5 -10 5 C-9.67 3.68 -9.34 2.36 -9 1 C-5.92677456 0.08941469 -3.19902639 -0.08886184 0 0 Z " fill="#474444" transform="translate(888,461)"/>
<path d="M0 0 C0.66 0.33 1.32 0.66 2 1 C0.90653119 2.34212062 -0.2001575 3.67347975 -1.3125 5 C-2.23482422 6.11375 -2.23482422 6.11375 -3.17578125 7.25 C-5 9 -5 9 -8 9 C-5.36 6.03 -2.72 3.06 0 0 Z " fill="#252223" transform="translate(287,321)"/>
<path d="M0 0 C0 4.31618166 -2.13270348 5.92789659 -5 9 C-5.66 9 -6.32 9 -7 9 C-5.44499019 5.18315774 -2.96404505 2.80804268 0 0 Z " fill="#4B494B" transform="translate(334,330)"/>
<path d="M0 0 C0.66 0.33 1.32 0.66 2 1 C-0.31 3.64 -2.62 6.28 -5 9 C-5.66 8.67 -6.32 8.34 -7 8 C-4.69 5.36 -2.38 2.72 0 0 Z " fill="#3E3C3C" transform="translate(314,295)"/>
<path d="M0 0 C-0.33 0.99 -0.66 1.98 -1 3 C-2.9375 3.75 -2.9375 3.75 -5 4 C-5.66 3.67 -6.32 3.34 -7 3 C-7 2.34 -7 1.68 -7 1 C-4.53721199 -0.231394 -2.7204945 -0.07159196 0 0 Z " fill="#504D4E" transform="translate(308,270)"/>
<path d="M0 0 C4.6875 3.61328125 4.6875 3.61328125 6 5 C6 5.99 6 6.98 6 8 C5.34 8 4.68 8 4 8 C2.96210419 6.35666496 1.96432076 4.68756133 1 3 C0.34 2.34 -0.32 1.68 -1 1 C-0.67 0.67 -0.34 0.34 0 0 Z " fill="#585657" transform="translate(286,18)"/>
<path d="M0 0 C3.77545388 1.09068668 6.47043472 1.9083091 9 5 C8.01 5.495 8.01 5.495 7 6 C4.5249829 4.88568235 2.32116581 3.41849022 0 2 C0 1.34 0 0.68 0 0 Z " fill="#625F60" transform="translate(770,346)"/>
</svg>
