<?xml version="1.0" encoding="UTF-8"?>
<svg version="1.1" xmlns="http://www.w3.org/2000/svg" width="1452" height="417">
<path d="M0 0 C18.81 0 37.62 0 57 0 C57 19.8 57 39.6 57 60 C61.929375 59.979375 66.85875 59.95875 71.9375 59.9375 C122.0245279 59.92491216 122.0245279 59.92491216 138.3125 74.5 C150.3393191 87.62927751 153.0954079 105.86647357 153.20532227 122.99609375 C153.21522186 123.96286545 153.22512146 124.92963715 153.23532104 125.92570496 C153.26671069 129.09627906 153.29160366 132.26686811 153.31640625 135.4375 C153.33699527 137.64567436 153.35799224 139.85384495 153.37937927 142.06201172 C153.43439878 147.85529516 153.48389628 153.64861298 153.53222656 159.44195557 C153.58258908 165.36107417 153.63819793 171.28014327 153.69335938 177.19921875 C153.80069461 188.7994368 153.90219364 200.39969797 154 212 C154.51745285 210.99276886 155.0349057 209.98553772 155.56803894 208.94778442 C157.51112346 205.16582116 159.45478305 201.38415369 161.39860535 197.60256958 C162.23549015 195.97427136 163.07222459 194.34589586 163.90879822 192.71743774 C169.08264193 182.64642025 174.28532029 172.59300431 179.58203125 162.5859375 C183.14565816 155.84442934 186.64839096 149.0710187 190.15844727 142.30151367 C192.75562481 137.29717708 195.36436483 132.30014727 198.015625 127.32421875 C198.47904297 126.4528125 198.94246094 125.58140625 199.41992188 124.68359375 C200.28204117 123.06569587 201.14771049 121.44968269 202.01757812 119.8359375 C202.39849609 119.12050781 202.77941406 118.40507813 203.171875 117.66796875 C203.5028418 117.05203857 203.83380859 116.4361084 204.17480469 115.80151367 C205.11601842 113.74671599 205.77468971 112.2657492 206 110 C204.9405127 107.10878375 204.9405127 107.10878375 203.23828125 104.0390625 C202.93687225 103.46146179 202.63546326 102.88386108 202.32492065 102.28875732 C201.3324117 100.39445277 200.32273631 98.50990145 199.3125 96.625 C198.6134206 95.29947494 197.91526872 93.97346032 197.21801758 92.64697266 C192.82740423 84.31932409 188.3235778 76.05403373 183.77270508 67.81298828 C178.59582505 58.38168828 173.72574217 48.794407 168.83242798 39.21408081 C163.5044583 28.78632874 158.07670587 18.43592893 152.3515625 8.21875 C151.90296875 7.41308594 151.454375 6.60742188 150.9921875 5.77734375 C150.60401855 5.08890381 150.21584961 4.40046387 149.81591797 3.69116211 C149 2 149 2 149 0 C173.09 0 197.18 0 222 0 C225.62476953 7.24953905 229.17292803 14.41615884 232.41796875 21.82421875 C232.80189285 22.69593216 233.18581696 23.56764557 233.58137512 24.46577454 C234.38187062 26.28583702 235.18082946 28.10657611 235.97827148 29.92797852 C237.19058704 32.69454477 238.41044244 35.45770266 239.63085938 38.22070312 C240.41451819 40.00500826 241.19773668 41.78950688 241.98046875 43.57421875 C242.51960152 44.79331184 242.51960152 44.79331184 243.06962585 46.03703308 C245.35277348 51.27248083 247.28653864 56.55162241 249 62 C249.66 62 250.32 62 251 62 C251.12642883 61.26797867 251.25285767 60.53595734 251.38311768 59.78175354 C251.96981998 57.136093 252.76235385 54.95698249 253.87011719 52.49194336 C254.25431824 51.63011948 254.63851929 50.76829559 255.03436279 49.88035583 C255.45099182 48.95948685 255.86762085 48.03861786 256.296875 47.08984375 C256.72752258 46.12655655 257.15817017 45.16326935 257.60186768 44.17079163 C258.97976473 41.09084411 260.36455002 38.01405642 261.75 34.9375 C263.11992666 31.88539822 264.48836191 28.83263791 265.85528564 25.77919006 C266.70478532 23.88264296 267.5561692 21.98693817 268.40985107 20.0922699 C271.39761387 13.43706276 274.19126756 6.74095785 277 0 C301.42 0 325.84 0 351 0 C341.69995893 18.60008213 341.69995893 18.60008213 338.484375 24.8828125 C338.10673508 25.62136475 337.72909515 26.35991699 337.3400116 27.12084961 C336.1447351 29.45628394 334.94768674 31.79080089 333.75 34.125 C333.33348175 34.93725037 332.9169635 35.74950073 332.48782349 36.58636475 C327.74541073 45.82669514 322.96679885 55.03658946 317.9375 64.125 C313.00119626 73.0804162 308.18215362 82.09610647 303.447052 91.15936279 C302.61278802 92.75108018 301.77355097 94.34020173 300.9291687 95.92657471 C299.74506 98.15380647 298.57951963 100.38984612 297.41796875 102.62890625 C297.05721252 103.2987706 296.6964563 103.96863495 296.32476807 104.65879822 C294.8951378 107.45516556 293.97300853 109.49525024 294.14257812 112.66625977 C295.04799016 115.13062015 296.06651462 117.39258475 297.30078125 119.7109375 C297.77773438 120.61521484 298.2546875 121.51949219 298.74609375 122.45117188 C299.52146484 123.8984668 299.52146484 123.8984668 300.3125 125.375 C301.40257829 127.43477173 302.49241479 129.49467143 303.58203125 131.5546875 C304.14486816 132.61397461 304.70770508 133.67326172 305.28759766 134.76464844 C308.55989721 140.94721384 311.76948811 147.16264498 314.98950195 153.37255859 C317.56076568 158.31126366 320.19766103 163.18843686 323 168 C323.01417969 166.91847656 323.02835938 165.83695313 323.04296875 164.72265625 C323.98062827 128.07275222 337.79958352 93.40083296 354 61 C373.8 61 393.6 61 414 61 C410.67392539 69.86953229 407.33845912 78.7190609 403.91625977 87.54907227 C386.04966863 129.81577722 386.04966863 129.81577722 388.7421875 173.79296875 C391.75476425 179.0790118 396.18988966 181.3814459 401.77734375 183.421875 C410.88599596 185.79108507 420.78910968 185.5152163 430 186 C430 144.75 430 103.5 430 61 C449.14 61 468.28 61 488 61 C488.33 70.57 488.66 80.14 489 90 C490.98 87.36 492.96 84.72 495 82 C506.09114895 68.75852626 522.33669621 62.69504034 539.12841797 60.87548828 C539.89726255 60.79197176 540.66610714 60.70845524 541.45825005 60.62240791 C551.39744293 59.644497 561.34397502 59.75059572 571.3203125 59.8046875 C573.16853718 59.80763847 575.01676354 59.80967239 576.86499023 59.81079102 C583.61835278 59.82115624 590.37167925 59.84907775 597.125 59.875 C612.26375 59.91625 627.4025 59.9575 643 60 C643 117.09 643 174.18 643 233 C542.8462358 233 542.8462358 233 510.3125 201.625 C501.26651278 192.36057274 495.49690714 182.36958749 489 171 C488.67 191.46 488.34 211.92 488 233 C461.85796938 233.12032643 461.85796938 233.12032643 450.6484375 233.14648438 C443.02272214 233.16436415 435.39711563 233.18543454 427.77148438 233.22631836 C421.61822955 233.25909888 415.4650916 233.27689227 409.31175613 233.28463173 C406.97321358 233.29014183 404.63467686 233.30090099 402.29618454 233.31719017 C373.80056398 233.50764834 373.80056398 233.50764834 360.3125 227.375 C359.35988281 226.94960937 358.40726563 226.52421875 357.42578125 226.0859375 C356.22501953 225.54839844 356.22501953 225.54839844 355 225 C354.01 224.67 353.02 224.34 352 224 C353.98 228.455 353.98 228.455 356 233 C331.91 233 307.82 233 283 233 C273.79744265 214.59488531 273.79744265 214.59488531 270.4921875 207.1796875 C270.11820831 206.34768829 269.74422913 205.51568909 269.35891724 204.65847778 C268.58290995 202.93041786 267.80847552 201.20165074 267.03564453 199.47216797 C265.87238633 196.8691514 264.70419868 194.268392 263.53515625 191.66796875 C260.13323358 184.09011819 256.75218197 176.50269555 253.4453125 168.8828125 C252.96852051 167.78598145 252.49172852 166.68915039 252.00048828 165.55908203 C251 163 251 163 251 161 C250.34 161 249.68 161 249 161 C248.73823975 161.83368103 248.73823975 161.83368103 248.47119141 162.6842041 C246.75722394 168.00115598 244.7508741 173.04178014 242.375 178.09375 C242.03126343 178.83554504 241.68752686 179.57734009 241.33337402 180.34161377 C240.60242182 181.91824585 239.86942976 183.49393364 239.13452148 185.06872559 C237.21518563 189.18185366 235.31052275 193.30175621 233.40625 197.421875 C233.02843384 198.23867737 232.65061768 199.05547974 232.26135254 199.89703369 C228.43799891 208.18179654 224.76043382 216.52639004 221.13671875 224.90039062 C220.73066406 225.83560547 220.32460938 226.77082031 219.90625 227.734375 C219.55884766 228.54100586 219.21144531 229.34763672 218.85351562 230.17871094 C218 232 218 232 217 233 C215.41845152 233.09594225 213.83260875 233.1218796 212.24815369 233.12025452 C210.7063015 233.12231651 210.7063015 233.12231651 209.13330078 233.12442017 C207.99610596 233.12082489 206.85891113 233.11722961 205.68725586 233.11352539 C203.90213341 233.11374443 203.90213341 233.11374443 202.08094788 233.1139679 C198.80836726 233.11338894 195.53582893 233.10835981 192.26325679 233.10139394 C188.84661335 233.09515967 185.42996917 233.09455654 182.01332092 233.09336853 C175.53930733 233.09025543 169.06531054 233.08204233 162.59130436 233.07201904 C155.2226208 233.06085725 147.85393645 233.05534729 140.48524654 233.05032361 C125.32348831 233.03985969 110.16174583 233.02226066 95 233 C94.99503478 232.15296509 94.99503478 232.15296509 94.98996925 231.28881836 C94.90861521 217.52468824 94.81635933 203.76066797 94.71247292 189.99668884 C94.66256079 183.34042095 94.61623017 176.68418121 94.578125 170.02783203 C94.54120824 163.60221377 94.49483056 157.17672662 94.44193649 150.7512207 C94.42342657 148.30169987 94.40830611 145.85215096 94.39665604 143.40258789 C94.37973561 139.96747456 94.3506859 136.53265929 94.31884766 133.09765625 C94.31668747 132.08848648 94.31452728 131.07931671 94.31230164 130.03956604 C94.2453282 124.3703871 93.8037145 119.39738051 92 114 C82.48171951 105.75082358 68.82776683 108.49282362 57 108 C57 149.25 57 190.5 57 233 C38.19 233 19.38 233 0 233 C0 156.11 0 79.22 0 0 Z M546.1875 112.6875 C540.93077685 118.24460733 539.31143969 124.18263647 539.5 131.6875 C539.51281006 132.47205566 539.52562012 133.25661133 539.53881836 134.06494141 C540.03394015 148.46020348 546.26824971 161.67570449 556.0625 172.19140625 C564.56953852 180.13245228 573.54781614 184.36397373 585 186 C585 160.26 585 134.52 585 108 C564.13961102 106.54277855 564.13961102 106.54277855 546.1875 112.6875 Z " fill="#FEFEFE" transform="translate(652,0)"/>
<path d="M0 0 C73.92 0 147.84 0 224 0 C224 19.8 224 39.6 224 60 C231.1465625 59.9690625 231.1465625 59.9690625 238.4375 59.9375 C289.04154578 59.92436633 289.04154578 59.92436633 305.1875 74.99609375 C311.18085656 81.62236943 314.28673358 89.60483448 317 98 C317.4846875 97.16597656 317.969375 96.33195312 318.46875 95.47265625 C328.75987621 78.19543859 340.74924007 68.23472571 360.59765625 63.0625 C376.47246073 59.59040817 392.64738442 59.85564717 408.8125 59.90234375 C410.54361946 59.9038189 412.27473937 59.90483607 414.00585938 59.90539551 C420.3372465 59.91058195 426.66862401 59.92454279 433 59.9375 C447.19 59.958125 461.38 59.97875 476 60 C476 117.09 476 174.18 476 233 C377.49443207 233 377.49443207 233 347 205 C346.18789063 204.27039063 345.37578125 203.54078125 344.5390625 202.7890625 C334.24561212 193.07349004 327.6958197 181.43509372 321 169 C320.67 190.12 320.34 211.24 320 233 C300.86 233 281.72 233 262 233 C261.95101563 225.65492188 261.90203125 218.30984375 261.8515625 210.7421875 C261.81614329 206.06639315 261.78016447 201.39061632 261.7421875 196.71484375 C261.68206917 189.30650447 261.62393194 181.89818949 261.578125 174.48974609 C261.54103066 168.5114828 261.49460764 162.53335574 261.44193649 156.55521011 C261.42352005 154.28369684 261.40836601 152.01215451 261.39665604 149.74059677 C262.58020414 130.43072394 262.58020414 130.43072394 257.36099243 112.76608276 C248.53247668 106.16212704 232.99705608 108.37487734 224 108 C224 149.25 224 190.5 224 233 C204.86 233 185.72 233 166 233 C166 173.6 166 114.2 166 53 C150.16 53 134.32 53 118 53 C118 173.12 118 293.24 118 417 C96.55 417 75.1 417 53 417 C53 296.88 53 176.76 53 53 C30.89 53 8.78 53 -14 53 C-11.73355959 34.86847671 -5.07137849 17.55477169 0 0 Z M378.6875 113.25 C374.01771736 118.02838224 372.63467058 122.84898768 372.53173828 129.35546875 C372.54188965 130.10441406 372.55204102 130.85335937 372.5625 131.625 C372.57007324 132.41261719 372.57764648 133.20023438 372.58544922 134.01171875 C373.03866906 150.2879351 380.66310911 162.77978381 392 174 C399.3429445 180.77924371 408.22036053 184.37006009 418 186 C418 160.26 418 134.52 418 108 C396.28437462 106.29602336 396.28437462 106.29602336 378.6875 113.25 Z " fill="#FEFEFE" transform="translate(14,0)"/>
<path d="M0 0 C17.015625 -0.061875 34.03125 -0.12375 51.5625 -0.1875 C56.90767822 -0.21481201 62.25285645 -0.24212402 67.76000977 -0.27026367 C74.3572998 -0.28381348 74.3572998 -0.28381348 77.45933533 -0.28633118 C79.59619529 -0.29089611 81.73304821 -0.30135907 83.86985779 -0.31672668 C114.58737126 -0.52633201 114.58737126 -0.52633201 127.5625 6.375 C129.20412109 7.22191406 129.20412109 7.22191406 130.87890625 8.0859375 C143.75774308 15.98409776 148.50860794 27.97672281 152 42 C153.21138631 48.49273898 153.13660351 54.90660869 153.12025452 61.49668884 C153.12153615 63.38613617 153.12153615 63.38613617 153.12284368 65.31375414 C153.12507369 68.79823343 153.12108784 72.28268184 153.11606562 75.7671572 C153.11173983 79.52916881 153.11320906 83.29117874 153.1139679 87.05319214 C153.11449178 93.56721851 153.11135912 100.08123486 153.10573006 106.59525871 C153.09759673 116.01339789 153.09499795 125.43153222 153.09374207 134.84967453 C153.09155443 150.13066142 153.08490215 165.41164296 153.07543945 180.69262695 C153.06625788 195.5350746 153.05918069 210.37752079 153.05493164 225.2199707 C153.05466892 226.13513928 153.05440619 227.05030786 153.05413551 227.99320882 C153.05283045 232.58442424 153.05156675 237.17563968 153.05032361 241.76685512 C153.03995997 279.84457483 153.02152649 317.92228465 153 356 C134.19 356 115.38 356 96 356 C95.970271 342.91682129 95.970271 342.91682129 95.93994141 329.56933594 C95.87508909 301.63950764 95.80055352 273.70971267 95.71994839 245.77992557 C95.70743001 241.43922143 95.69499716 237.09851704 95.68261719 232.7578125 C95.68015119 231.89368194 95.6776852 231.02955138 95.67514448 230.13923505 C95.63545608 216.16025558 95.60269142 202.18126807 95.57250018 188.20226523 C95.54135033 173.85102568 95.50272588 159.49982018 95.45720994 145.14861894 C95.42937428 136.29818825 95.40731998 127.44778237 95.39273749 118.59731975 C95.38216885 112.52244404 95.36431847 106.44761646 95.34083296 100.37277707 C95.32750957 96.87161626 95.3173095 93.37052269 95.31578636 89.86933517 C95.31244799 86.0636557 95.29692753 82.25820767 95.2784729 78.45257568 C95.281375 76.81244432 95.281375 76.81244432 95.28433573 75.13917899 C95.55791116 62.88123857 95.55791116 62.88123857 91.42296278 51.78301787 C82.83728196 45.46495865 66.47980973 47.36868738 58 47 C58 88.25 58 129.5 58 172 C38.86 172 19.72 172 0 172 C0 115.24 0 58.48 0 0 Z " fill="#FEFEFE" transform="translate(1299,61)"/>
<path d="M0 0 C14.499375 -0.020625 28.99875 -0.04125 43.9375 -0.0625 C50.75329712 -0.07615601 50.75329712 -0.07615601 57.70678711 -0.09008789 C63.34289551 -0.09460449 63.34289551 -0.09460449 65.99830627 -0.09544373 C67.81589504 -0.09695895 69.63348294 -0.1004325 71.45106506 -0.10557556 C123.02531776 -0.24395631 123.02531776 -0.24395631 139.375 14.625 C152.27997252 28.81511502 154.17551437 49.45672265 154.11352539 67.76196289 C154.11367142 68.90444489 154.11381744 70.04692688 154.1139679 71.22402954 C154.11327519 74.97359157 154.10551296 78.72310297 154.09765625 82.47265625 C154.09578979 85.08296176 154.09436696 87.69326762 154.09336853 90.30357361 C154.09027163 96.45503602 154.08208056 102.60648046 154.07201904 108.75793499 C154.05970493 116.45515632 154.05426232 124.15238063 154.04882812 131.84960938 C154.03911405 145.56642021 154.01907762 159.2831919 154 173 C134.86 173 115.72 173 96 173 C95.95101562 165.16378906 95.90203125 157.32757813 95.8515625 149.25390625 C95.81616633 144.28188833 95.78020063 139.30988755 95.7421875 134.33789062 C95.68193999 126.4506275 95.62377187 118.56338829 95.578125 110.67602539 C95.54118084 104.31524064 95.4947959 97.95458765 95.44193649 91.59391594 C95.42344107 89.17034154 95.40831532 86.74673895 95.39665604 84.32312202 C95.37971063 80.92173978 95.35065521 77.52065612 95.31884766 74.11938477 C95.31668747 73.12316101 95.31452728 72.12693726 95.31230164 71.1005249 C95.24377445 65.34303552 95.09147976 59.43637963 93 54 C83.67608566 45.71207614 69.44494621 48.47687276 58 48 C58 89.25 58 130.5 58 173 C38.86 173 19.72 173 0 173 C0 115.91 0 58.82 0 0 Z " fill="#FEFEFE" transform="translate(494,60)"/>
<path d="M0 0 C4.62 0 9.24 0 14 0 C16.27477691 14.72430741 18.2843534 29.4734511 20.1875 44.25 C20.46270746 46.37502373 20.73809719 48.50002386 21.01367188 50.625 C21.67787274 55.74973171 22.33964146 60.87477183 23 66 C25.74484788 52.05590948 27.96517431 38.03511035 30.1875 24 C30.55904307 21.66403041 30.9307864 19.32809266 31.30273438 16.9921875 C32.20412934 11.32848961 33.10306181 5.66440531 34 0 C35.97909398 -0.02686553 37.95828971 -0.04633375 39.9375 -0.0625 C41.03964844 -0.07410156 42.14179687 -0.08570313 43.27734375 -0.09765625 C46 0 46 0 47 1 C47.38967738 2.98773406 47.72201985 4.98673598 48.03149414 6.98852539 C48.23162613 8.26977798 48.43175812 9.55103058 48.63795471 10.87110901 C48.85377595 12.2799447 49.06950767 13.68879412 49.28515625 15.09765625 C49.5075711 16.53117849 49.73034879 17.96464449 49.95347595 19.39805603 C50.54071336 23.17702626 51.12300054 26.95674339 51.70428467 30.7366333 C52.29793435 34.59115849 52.89622856 38.44496224 53.49414062 42.29882812 C54.66732556 49.86518425 55.83528557 57.43233484 57 65 C58.78396013 63.21603987 58.53427241 60.54230869 58.83203125 58.11914062 C58.98889404 56.86113647 59.14575684 55.60313232 59.30737305 54.30700684 C59.38966156 53.63066696 59.47195007 52.95432709 59.55673218 52.25749207 C59.81351511 50.1479104 60.07558763 48.03904736 60.33911133 45.93029785 C60.89751572 41.45411724 61.44922314 36.97712469 62 32.5 C62.63799067 27.31393647 63.27867334 22.12823688 63.92660522 16.94340515 C64.18543758 14.86034813 64.43910746 12.77670249 64.69262695 10.69299316 C64.92792114 8.80598694 64.92792114 8.80598694 65.16796875 6.88085938 C65.30485107 5.76690796 65.4417334 4.65295654 65.58276367 3.50524902 C66 1 66 1 67 0 C69.35313555 -0.07271741 71.70833668 -0.08370868 74.0625 -0.0625 C75.99802734 -0.04896484 75.99802734 -0.04896484 77.97265625 -0.03515625 C78.97167969 -0.02355469 79.97070312 -0.01195312 81 0 C77.49486791 25.10338066 73.80835346 50.1787429 70.0276413 75.24192047 C69.68671874 77.50518652 69.34711613 79.7686471 69.00787354 82.03216553 C68.46873258 85.62815623 67.92607918 89.22359964 67.38067436 92.81864548 C67.0798228 94.80671758 66.78219784 96.79527709 66.4846344 98.78384399 C66.21319862 100.56436661 66.21319862 100.56436661 65.9362793 102.38085938 C65.77894821 103.42222046 65.62161713 104.46358154 65.45951843 105.53649902 C65 108 65 108 64 110 C60.04 110 56.08 110 52 110 C51.86441177 109.16728073 51.72882355 108.33456146 51.58912659 107.47660828 C50.31160405 99.63343106 49.03171116 91.79064516 47.74914646 83.94829082 C47.08983424 79.91634209 46.43144325 75.8842474 45.77514648 71.85180664 C45.14188687 67.96112421 44.50622195 64.07084178 43.86887932 60.18082619 C43.62600735 58.69579912 43.38400604 57.2106294 43.14288521 55.725317 C42.80531639 53.64681717 42.46467044 51.56884366 42.12329102 49.4909668 C41.93009781 48.30738083 41.7369046 47.12379486 41.53785706 45.90434265 C41.05970283 42.94879045 41.05970283 42.94879045 40 40 C39.86441177 40.86221664 39.72882355 41.72443329 39.58912659 42.61277771 C38.31321163 50.72171165 37.03339548 58.83001799 35.74914646 66.93763638 C35.08897475 71.10627875 34.43033657 75.27515159 33.77514648 79.44458008 C33.14329215 83.46514504 32.50748362 87.48506612 31.86887932 91.50456429 C31.62543495 93.0413982 31.38343824 94.57846213 31.14288521 96.11575127 C30.80680214 98.26195029 30.46567094 100.4072881 30.12329102 102.55249023 C29.93009781 103.77604721 29.7369046 104.99960419 29.53785706 106.26023865 C29 109 29 109 28 110 C26.14712498 110.07226502 24.29166122 110.0838122 22.4375 110.0625 C20.91962891 110.04896484 20.91962891 110.04896484 19.37109375 110.03515625 C18.58863281 110.02355469 17.80617188 110.01195312 17 110 C15.2810087 104.4727926 14.25747685 99.00726516 13.39599609 93.28857422 C13.24940048 92.33973358 13.10280487 91.39089294 12.95176697 90.41329956 C12.4711501 87.29443538 11.99710407 84.17461419 11.5234375 81.0546875 C11.19028074 78.87944188 10.85683113 76.7042411 10.52310181 74.52908325 C9.82597548 69.97864822 9.13204162 65.42774117 8.44042969 60.87646484 C7.5538711 55.04369781 6.65991598 49.21209357 5.76364708 43.38081169 C5.07458357 38.89285136 4.38915415 34.40434195 3.70485306 29.91565323 C3.3765773 27.76490281 3.04723554 25.61431482 2.71680832 23.46389389 C2.2559585 20.46068395 1.79993754 17.45677963 1.34521484 14.45263672 C1.20809586 13.56523804 1.07097687 12.67783936 0.92970276 11.7635498 C0.80638077 10.94220551 0.68305878 10.12086121 0.55599976 9.27462769 C0.44798223 8.56564268 0.33996471 7.85665768 0.22867393 7.12618828 C-0.02546844 4.76319686 0 2.37661877 0 0 Z " fill="#FEFEFE" transform="translate(1086,278)"/>
<path d="M0 0 C4.62 0 9.24 0 14 0 C14.77077881 2.22931274 14.77077881 2.22931274 15.55712891 4.50366211 C17.49115463 10.0969495 19.42589717 15.68998874 21.36083984 21.28295898 C22.1930621 23.6888174 23.02509826 26.0947402 23.85693359 28.50073242 C25.06296856 31.98894547 26.26970634 35.47691475 27.4765625 38.96484375 C27.83932281 40.01453842 28.20208313 41.06423309 28.57583618 42.14573669 C31.67917606 51.11115788 34.84222012 60.052957 38 69 C38.33 46.23 38.66 23.46 39 0 C43.62 0 48.24 0 53 0 C53 36.3 53 72.6 53 110 C48.38 110 43.76 110 39 110 C37.34841085 105.31713327 35.69858465 100.63364952 34.05004883 95.94970703 C33.49513603 94.37371071 32.93982948 92.79785294 32.3840332 91.22216797 C26.4913061 74.51436216 20.75964107 57.75531947 15 41 C14.67 63.77 14.34 86.54 14 110 C9.38 110 4.76 110 0 110 C0 73.7 0 37.4 0 0 Z " fill="#FEFEFE" transform="translate(915,278)"/>
<path d="M0 0 C4.62 0 9.24 0 14 0 C22.12771153 22.62275468 30.07268672 45.30612278 38 68 C38.33 45.56 38.66 23.12 39 0 C43.62 0 48.24 0 53 0 C53 36.3 53 72.6 53 110 C48.38 110 43.76 110 39 110 C38.55720703 108.69667725 38.11441406 107.39335449 37.65820312 106.05053711 C35.97413649 101.09436309 34.28897072 96.13856332 32.60351562 91.18286133 C31.88187364 89.06056334 31.16050804 86.93817135 30.43945312 84.81567383 C29.38749398 81.71929968 28.33445308 78.62329498 27.28125 75.52734375 C26.97255981 74.61798569 26.66386963 73.70862762 26.3458252 72.77171326 C22.62035511 61.82770484 18.79822976 50.91991056 15 40 C14.67 63.1 14.34 86.2 14 110 C9.38 110 4.76 110 0 110 C0 73.7 0 37.4 0 0 Z " fill="#FEFEFE" transform="translate(754,278)"/>
<path d="M0 0 C35.421875 0 35.421875 0 43.41015625 6.390625 C53.03820014 16.13694953 55.62351828 31.80677097 56 45 C56.02046387 45.70608398 56.04092773 46.41216797 56.06201172 47.13964844 C57.04369107 86.74757072 57.04369107 86.74757072 46 100 C39.75704202 106.466491 33.76357047 108.53940492 25 110 C16.75 110 8.5 110 0 110 C0 73.7 0 37.4 0 0 Z M15 14 C15 40.73 15 67.46 15 95 C26.22196669 95.2420323 26.22196669 95.2420323 34.75 89.375 C41.55707201 80.37354293 41.210812 68.3738915 41.24023438 57.64453125 C41.24984773 55.53343879 41.28087662 53.42336085 41.3125 51.3125 C41.39878015 40.3377136 41.38645133 27.22334644 33.8671875 18.48828125 C28.24590225 14.00771707 21.93037892 14 15 14 Z " fill="#FEFEFE" transform="translate(431,278)"/>
<path d="M0 0 C33.08368201 0 33.08368201 0 39.4375 4.8671875 C46.75853893 14.27472252 47.74998973 23.19460616 47 35 C45.88043457 41.85022238 43.40007052 47.45732229 38 52 C37.34 52 36.68 52 36 52 C36 52.66 36 53.32 36 54 C36.721875 54.20625 37.44375 54.4125 38.1875 54.625 C42.62892382 56.79636276 45.17009147 60.08659978 47.125 64.59375 C49.63587565 74.36823022 49.8824721 88.97691552 45 98 C41.22775408 103.64374778 37.48529033 106.99545572 31 109 C20.80196097 110.69967317 10.33870828 110 0 110 C0 73.7 0 37.4 0 0 Z M14 14 C14 24.89 14 35.78 14 47 C24.43327753 46.72247331 24.43327753 46.72247331 31 41 C34.03110425 33.69779432 33.82167975 26.33636734 31 19 C28.68924967 16.16746734 27.484864 15.16162133 24 14 C20.7 14 17.4 14 14 14 Z M14 60 C14 71.55 14 83.1 14 95 C23.02877077 95.48664544 23.02877077 95.48664544 30 92 C34.34737117 86.15353532 34.54785789 80.06013088 34 73 C33.12307644 67.82695551 32.01917548 64.85277949 27.9375 61.4375 C23.13302041 59.42843338 23.13302041 59.42843338 14 60 Z " fill="#FEFEFE" transform="translate(180,278)"/>
<path d="M0 0 C33.28947368 0 33.28947368 0 39.9375 5.375 C45.70408598 12.71429125 47.34855054 19.20374354 47.3125 28.375 C47.32861328 29.18710937 47.34472656 29.99921875 47.36132812 30.8359375 C47.36721118 38.17799351 45.5925964 45.0952332 41 51 C37.56003947 53.40211355 33.74579367 55.13121942 30 57 C32.48996614 62.67435278 34.98021031 68.34858344 37.47070312 74.02270508 C38.31648119 75.94975552 39.16218558 77.8768383 40.0078125 79.80395508 C41.22896894 82.58683813 42.4503974 85.36960165 43.671875 88.15234375 C44.04495789 89.00271713 44.41804077 89.85309052 44.8024292 90.72923279 C45.34253632 91.95948936 45.34253632 91.95948936 45.89355469 93.21459961 C46.24011108 94.00696014 46.58666748 94.79932068 46.94372559 95.61569214 C47.66887978 97.2525687 48.4080299 98.88329469 49.15881348 100.50857544 C49.52567261 101.30697845 49.89253174 102.10538147 50.27050781 102.92797852 C50.60270325 103.63962662 50.93489868 104.35127472 51.27716064 105.08448792 C52 107 52 107 52 110 C47.05 110 42.1 110 37 110 C34.05291582 104.24451796 31.40044133 98.4265009 28.890625 92.46875 C28.56046387 91.69047852 28.23030273 90.91220703 27.89013672 90.11035156 C26.67394858 87.24142363 25.46222663 84.37060406 24.25 81.5 C21.5275 75.065 18.805 68.63 16 62 C15.67 77.84 15.34 93.68 15 110 C10.05 110 5.1 110 0 110 C0 73.7 0 37.4 0 0 Z M15 13 C15 24.22 15 35.44 15 47 C23.85627289 47.49063743 23.85627289 47.49063743 30 43 C33.45043842 36.58270734 34.20386928 28.97412658 32.49609375 21.91796875 C31.4498128 19.07806331 30.17119036 17.1556276 27.9375 15.125 C23.95746706 13.45311402 23.95746706 13.45311402 15 13 Z " fill="#FEFEFE" transform="translate(241,278)"/>
<path d="M0 0 C12.06502965 11.3684344 11.78100339 32.10450401 12.37890625 47.48828125 C13.01429815 88.95819283 13.01429815 88.95819283 0.1875 102.3125 C-6.07932636 107.22652436 -12.58838048 108.1119745 -20.40625 107.7890625 C-27.3105275 106.82309707 -32.64678658 104.14388492 -37.1875 98.8125 C-50.44198365 78.66868022 -47.95913519 43.93307102 -43.8125 21.3125 C-41.62643291 11.31754904 -38.4890709 3.1845895 -29.75 -2.625 C-20.23835476 -7.98316688 -8.54224693 -6.69872783 0 0 Z M-24.8125 12.3125 C-32.04666033 22.52543223 -31.15868508 36.10825035 -31.12817383 48.03588867 C-31.12501882 50.60964564 -31.14852676 53.18224406 -31.17382812 55.75585938 C-31.5184651 74.22132076 -31.5184651 74.22132076 -23.8125 90.3125 C-20.09379846 92.79163436 -17.12074927 92.94606607 -12.8125 92.3125 C-8.47133184 90.24057883 -7.23570902 87.37101323 -5.5625 83.0625 C-3.05405397 75.94838256 -2.65508248 68.70394562 -2.609375 61.21875 C-2.60082489 60.09406311 -2.60082489 60.09406311 -2.59210205 58.94665527 C-2.58271715 57.36679464 -2.57614423 55.786915 -2.57226562 54.20703125 C-2.56263656 51.845985 -2.53158314 49.48584001 -2.5 47.125 C-2.29596916 28.16203605 -2.29596916 28.16203605 -9.8125 11.3125 C-14.68643691 7.7382796 -20.34456012 8.55002431 -24.8125 12.3125 Z " fill="#FEFEFE" transform="translate(1218.8125,281.6875)"/>
<path d="M0 0 C9.6451197 9.08248771 11.51861024 24.33148005 12.09741211 36.93115234 C12.22292701 41.14014224 12.23491225 45.34539371 12.20361328 49.5559082 C12.18748744 52.12700222 12.20359154 54.69653026 12.22265625 57.26757812 C12.24286713 73.52393048 11.3979145 90.99894311 -0.359375 103.3984375 C-6.15407454 108.6730999 -12.17772106 108.59897526 -19.7421875 108.40625 C-26.23414274 107.75852658 -30.98607696 105.67543907 -35.5 100.9375 C-45.46525073 88.01856 -45.37449237 70.14892203 -45.37280273 54.6262207 C-45.37497843 52.3971006 -45.39315879 50.16848545 -45.41210938 47.93945312 C-45.47778226 31.34365016 -44.97849646 12.46747343 -32.68359375 0.03125 C-22.94220015 -7.6521027 -10.07887972 -6.12637787 0 0 Z M-25.1875 14.0625 C-36.06619802 29.88949469 -32.42647342 61.12423914 -29.1875 79.0625 C-27.89020849 84.07231697 -26.30657492 87.75691259 -22.9375 91.6875 C-19.22210952 93.54519524 -16.26002231 93.85552666 -12.1875 93.0625 C-8.01592501 90.83766 -6.24101172 88.07829251 -4.8125 83.58984375 C-0.00177575 64.13647758 2.31054424 33.38015675 -7.1875 15.0625 C-9.91005251 11.69251122 -12.39491849 10.18764445 -16.75 9.5 C-20.92360339 10.18295328 -22.35356069 10.92218887 -25.1875 14.0625 Z " fill="#FEFEFE" transform="translate(344.1875,280.9375)"/>
<path d="M0 0 C33.87360422 0 33.87360422 0 41.59765625 7.32421875 C48.20779492 15.2232424 47.53769107 26.31160342 47 36 C45.92900535 42.87070297 43.50688019 48.5820028 38 53 C35.70166016 53.95532227 35.70166016 53.95532227 33.2890625 54.69140625 C32.4842041 54.94220947 31.6793457 55.1930127 30.85009766 55.45141602 C30.23956543 55.63244873 29.6290332 55.81348145 29 56 C29.34144043 56.75804932 29.68288086 57.51609863 30.03466797 58.29711914 C36.00997977 71.57191988 41.97515611 84.85131482 47.8125 98.1875 C48.23837402 99.15373291 48.66424805 100.11996582 49.10302734 101.11547852 C49.48797363 101.99905029 49.87291992 102.88262207 50.26953125 103.79296875 C50.77383667 104.94575317 50.77383667 104.94575317 51.28833008 106.12182617 C52 108 52 108 52 110 C46.72 110 41.44 110 36 110 C29.07 93.83 22.14 77.66 15 61 C14.67 77.17 14.34 93.34 14 110 C9.38 110 4.76 110 0 110 C0 73.7 0 37.4 0 0 Z M14 13 C14 24.22 14 35.44 14 47 C22.43029262 47.39719664 22.43029262 47.39719664 29 44 C32.84839795 38.55916151 33.39913838 31.99762031 32.75 25.49609375 C32.12453798 22.10631299 31.31166714 19.50645911 29.5 16.5625 C24.89500903 13.68438065 19.37383465 13 14 13 Z " fill="#FEFEFE" transform="translate(1245,278)"/>
<path d="M0 0 C4.71956333 4.38585683 8.02996453 8.8581247 10 15 C10 16.65 10 18.3 10 20 C6.04 21.98 2.08 23.96 -2 26 C-2.556875 24.618125 -3.11375 23.23625 -3.6875 21.8125 C-5.7708759 17.10451532 -8.26617539 13.36691231 -13 11 C-17.92593307 10.50740669 -20.02476944 10.41118155 -24.3125 13 C-33.19875819 21.52404657 -31.71888542 37.57780722 -32.09765625 48.92578125 C-32.49917151 70.40802442 -32.49917151 70.40802442 -25 90 C-21.4968102 92.72470317 -17.24559938 92.50845502 -13 92 C-9.83969983 90.92262494 -8.4965045 89.87056025 -6.84375 86.97265625 C-3.85503116 80.55758473 -2.89899105 74.74172041 -2.4375 67.6875 C-2.293125 65.480625 -2.14875 63.27375 -2 61 C-6.62 61 -11.24 61 -16 61 C-16 56.38 -16 51.76 -16 47 C-6.76 47 2.48 47 12 47 C12.46286613 88.1950856 12.46286613 88.1950856 1.80078125 101.23828125 C-3.81847203 106.73564183 -9.75425822 108.32798871 -17.5 108.625 C-25.28906375 108.32632753 -31.01996394 106.66059716 -36.80078125 101.34375 C-51.25925504 84.40975589 -48.19317929 52.44493911 -46.6875 31.92578125 C-45.45643367 19.0928026 -42.35642674 7.07704817 -32.125 -1.375 C-22.38410531 -6.44026524 -9.05882521 -6.92850807 0 0 Z " fill="#FEFEFE" transform="translate(867,281)"/>
<path d="M0 0 C4.62 0 9.24 0 14 0 C14.33 15.18 14.66 30.36 15 46 C18.09375 39.338125 21.1875 32.67625 24.375 25.8125 C25.83558838 22.67004761 25.83558838 22.67004761 27.32568359 19.46411133 C28.10003902 17.79513294 28.87429689 16.12610929 29.6484375 14.45703125 C30.04844971 13.59734741 30.44846191 12.73766357 30.8605957 11.85192871 C31.43886108 10.60421692 31.43886108 10.60421692 32.02880859 9.33129883 C32.5284462 8.25541252 32.5284462 8.25541252 33.03817749 7.15779114 C34.08943694 4.7993536 35.04102252 2.39744369 36 0 C41.28 0 46.56 0 52 0 C50.989375 2.289375 49.97875 4.57875 48.9375 6.9375 C48.39730225 8.17487915 48.39730225 8.17487915 47.84619141 9.43725586 C45.68408825 14.35117206 43.42941755 19.20835607 41.0743866 24.03211975 C39.65653215 26.94525224 38.2637848 29.87010501 36.87234497 32.79592896 C36.16929884 34.25799527 35.45507376 35.7147417 34.72946167 37.16574097 C29.84733847 46.08757661 29.84733847 46.08757661 29.578125 55.81640625 C30.34042023 57.56458869 31.15696674 59.28928939 32 61 C32.57918425 62.37878871 33.14814669 63.76189305 33.7097168 65.14794922 C35.72575475 70.10390037 37.8279186 75.02078776 39.9375 79.9375 C41.36693497 83.27839987 42.7929417 86.62073078 44.21484375 89.96484375 C44.55212494 90.7578891 44.88940613 91.55093445 45.23690796 92.36801147 C47.69241225 98.18029558 49.92976081 104.03792734 52 110 C46.72 110 41.44 110 36 110 C33.81021128 104.82738891 31.62324826 99.65359498 29.4387207 94.47875977 C28.69760488 92.72421263 27.95576255 90.96997217 27.21313477 89.21606445 C26.13619542 86.67222189 25.0620114 84.12722978 23.98828125 81.58203125 C23.66410721 80.81792435 23.33993317 80.05381744 23.00593567 79.26655579 C20.18153048 72.55934357 17.61714926 65.80458807 15 59 C14.67 75.83 14.34 92.66 14 110 C9.38 110 4.76 110 0 110 C0 73.7 0 37.4 0 0 Z " fill="#FEFEFE" transform="translate(1305,278)"/>
<path d="M0 0 C4.62 0 9.24 0 14 0 C19.90881984 26.92193394 25.79429685 53.84873284 31.51937866 80.8104248 C32.00616042 83.10206669 32.49397257 85.39348995 32.9828186 87.68469238 C33.66358205 90.87767583 34.34026588 94.0714947 35.015625 97.265625 C35.21816391 98.21308594 35.42070282 99.16054688 35.62937927 100.13671875 C35.81130325 101.00200195 35.99322723 101.86728516 36.18066406 102.75878906 C36.33988342 103.51001038 36.49910278 104.26123169 36.66314697 105.03521729 C37 107 37 107 37 110 C32.05 110 27.1 110 22 110 C21.32810344 107.08444885 20.66230692 104.16773049 20 101.25 C19.71382813 100.0125 19.71382813 100.0125 19.421875 98.75 C19.24140625 97.95078125 19.0609375 97.1515625 18.875 96.328125 C18.62363281 95.22839355 18.62363281 95.22839355 18.3671875 94.10644531 C18 92 18 92 18 88 C10.74 88 3.48 88 -4 88 C-5.27563659 94.86529956 -5.27563659 94.86529956 -6.54272461 101.73217773 C-6.78261108 103.00750366 -6.78261108 103.00750366 -7.02734375 104.30859375 C-7.18968506 105.18314209 -7.35202637 106.05769043 -7.51928711 106.95874023 C-8 109 -8 109 -9 110 C-11.35313555 110.07271741 -13.70833668 110.08370868 -16.0625 110.0625 C-17.99802734 110.04896484 -17.99802734 110.04896484 -19.97265625 110.03515625 C-20.97167969 110.02355469 -21.97070312 110.01195312 -23 110 C-22.3794314 103.55711236 -21.34918019 97.35126876 -19.97460938 91.02978516 C-19.77124466 90.07743988 -19.56787994 89.1250946 -19.35835266 88.14389038 C-18.69111479 85.02467555 -18.0175542 81.90686488 -17.34375 78.7890625 C-16.87641056 76.61200107 -16.4094155 74.43486569 -15.94274902 72.25765991 C-14.96699248 67.709758 -13.98831989 63.1624973 -13.00732422 58.61572266 C-11.74880249 52.78236369 -10.49568981 46.9478599 -9.24449921 41.11292458 C-8.28172432 36.62430691 -7.31707893 32.13609305 -6.35176086 27.6480217 C-5.88890652 25.4958597 -5.42641134 23.34362044 -4.96427917 21.19130325 C-4.31974357 18.19176872 -3.6729249 15.19273607 -3.02539062 12.19384766 C-2.83419144 11.30240051 -2.64299225 10.41095337 -2.44599915 9.49249268 C-2.26937241 8.67678802 -2.09274567 7.86108337 -1.9107666 7.0206604 C-1.75812599 6.31242945 -1.60548538 5.60419849 -1.4482193 4.874506 C-1 3 -1 3 0 0 Z M6 33 C4.9971982 38.17669758 4.00046546 43.35451343 3.00927734 48.53344727 C2.6714157 50.29418262 2.33191349 52.05460401 1.99072266 53.81469727 C1.49988482 56.34830772 1.01500642 58.88299792 0.53125 61.41796875 C0.37813354 62.20149216 0.22501709 62.98501556 0.06726074 63.7922821 C-0.07288452 64.53267227 -0.21302979 65.27306244 -0.35742188 66.03588867 C-0.48177612 66.68208664 -0.60613037 67.32828461 -0.73425293 67.99406433 C-1.10944405 70.48887157 -1.10944405 70.48887157 -1 75 C4.28 75 9.56 75 15 75 C14.28407518 67.1513427 12.91345553 59.44489756 11.47094727 51.70410156 C11.05855398 49.47870609 10.65911484 47.25120597 10.25976562 45.0234375 C9.998185 43.6092288 9.73584352 42.19516058 9.47265625 40.78125 C9.12086304 38.8640918 9.12086304 38.8640918 8.76196289 36.90820312 C8.51051514 35.94849609 8.25906738 34.98878906 8 34 C7.34 33.67 6.68 33.34 6 33 Z " fill="#FEFEFE" transform="translate(386,278)"/>
<path d="M0 0 C1.79244141 0.01740234 1.79244141 0.01740234 3.62109375 0.03515625 C5.41740234 0.04869141 5.41740234 0.04869141 7.25 0.0625 C8.17683594 0.07410156 9.10367188 0.08570313 10.05859375 0.09765625 C12.26634872 4.91482914 13.21873962 9.93346608 14.30517578 15.08862305 C14.52004639 16.09075836 14.73491699 17.09289368 14.95629883 18.12539673 C15.66401385 21.43164468 16.3653184 24.73921596 17.06640625 28.046875 C17.55646282 30.34429352 18.04685438 32.64164061 18.53756714 34.93891907 C19.56409027 39.7491445 20.58763602 44.55999038 21.60888672 49.37133789 C22.92040942 55.54980434 24.23764698 61.72703445 25.55688667 67.90385723 C26.5691041 72.6448278 27.57916067 77.38625651 28.58846664 82.12784767 C29.07363531 84.40661492 29.5592842 86.68527998 30.04541397 88.96384239 C30.72261916 92.1404157 31.39711998 95.31755069 32.07080078 98.49487305 C32.37466202 99.91699348 32.37466202 99.91699348 32.68466187 101.36784363 C32.86688293 102.23002502 33.049104 103.09220642 33.23684692 103.98051453 C33.39648485 104.73173427 33.55612278 105.48295401 33.72059822 106.25693798 C34.05859375 108.09765625 34.05859375 108.09765625 34.05859375 110.09765625 C29.10859375 110.09765625 24.15859375 110.09765625 19.05859375 110.09765625 C17.40859375 103.16765625 15.75859375 96.23765625 14.05859375 89.09765625 C7.12859375 89.09765625 0.19859375 89.09765625 -6.94140625 89.09765625 C-8.59140625 96.02765625 -10.24140625 102.95765625 -11.94140625 110.09765625 C-16.89140625 110.09765625 -21.84140625 110.09765625 -26.94140625 110.09765625 C-21.60526758 84.31760791 -16.21830503 58.54822146 -10.75521851 32.79476929 C-10.16956142 30.03342584 -9.585697 27.27171247 -9.00332642 24.50967407 C-8.18362283 20.62271532 -7.35776842 16.7370782 -6.53125 12.8515625 C-6.28376007 11.6746283 -6.03627014 10.49769409 -5.78128052 9.28509521 C-5.55302582 8.21720764 -5.32477112 7.14932007 -5.08959961 6.04907227 C-4.89103867 5.11241226 -4.69247772 4.17575226 -4.48789978 3.21070862 C-3.64784751 -0.03740751 -3.49164201 0.11592437 0 0 Z M3.05859375 31.09765625 C1.91693301 37.04203474 0.77766054 42.98686398 -0.359375 48.93212891 C-0.74673464 50.95569309 -1.13475326 52.97913124 -1.5234375 55.00244141 C-2.08115058 57.90624852 -2.63651285 60.81049668 -3.19140625 63.71484375 C-3.36639648 64.62321991 -3.54138672 65.53159607 -3.72167969 66.46749878 C-3.8818457 67.3082193 -4.04201172 68.14893982 -4.20703125 69.01513672 C-4.34915039 69.75682098 -4.49126953 70.49850525 -4.63769531 71.26266479 C-4.99583604 73.11652309 -4.99583604 73.11652309 -4.94140625 75.09765625 C0.66859375 75.09765625 6.27859375 75.09765625 12.05859375 75.09765625 C8.15308168 53.08035313 8.15308168 53.08035313 4.05859375 31.09765625 C3.72859375 31.09765625 3.39859375 31.09765625 3.05859375 31.09765625 Z " fill="#FEFEFE" transform="translate(572.94140625,277.90234375)"/>
<path d="M0 0 C3.22836585 0.17107664 6.42995553 0.18462154 9.66235352 0.17602539 C24.13277661 0.38941341 24.13277661 0.38941341 29.1184082 3.89501953 C30.97555699 6.50087422 32.14902532 9.04016273 33.39868164 11.98266602 C34.70270173 14.04615382 36.04052188 16.08856211 37.40649414 18.11157227 C38.78111788 20.25467613 40.15349119 22.39922502 41.52368164 24.54516602 C42.21333008 25.61702148 42.90297852 26.68887695 43.61352539 27.79321289 C47.42508935 33.75105904 51.04860959 39.75392188 54.39868164 45.98266602 C48.58274294 46.35555615 42.773831 46.62645315 36.94873047 46.80664062 C34.97191198 46.88175876 32.99591867 46.98390753 31.02197266 47.11425781 C14.98086413 48.14642604 14.98086413 48.14642604 10.58392334 44.4619751 C7.25370061 40.38871349 5.22553978 35.8841275 3.39868164 30.98266602 C1.24325878 33.47314031 -0.43384311 35.52411287 -1.57055664 38.63647461 C-2.81418291 41.97417091 -3.84809446 43.67846576 -6.60131836 45.98266602 C-13.31092719 47.74532151 -20.62159922 46.91296023 -27.47631836 46.60766602 C-29.42412167 46.55748159 -31.37204821 46.51185831 -33.32006836 46.47094727 C-38.08353084 46.36097065 -42.84107738 46.1885862 -47.60131836 45.98266602 C-46.35477163 42.64762595 -44.94956919 39.75315223 -42.98413086 36.78735352 C-42.19522461 35.5865918 -42.19522461 35.5865918 -41.39038086 34.36157227 C-40.84124023 33.5352832 -40.29209961 32.70899414 -39.72631836 31.85766602 C-38.66479134 30.25197237 -37.60498498 28.64514027 -36.54663086 27.03735352 C-35.93231201 26.14653076 -35.31799316 25.25570801 -34.68505859 24.33789062 C-32.9933395 21.61389583 -31.65893672 19.02427255 -30.31640625 16.12939453 C-23.11852575 1.5449026 -15.91655934 -0.87821396 0 0 Z " fill="#FEFEFE" transform="translate(1215.601318359375,-1.982666015625)"/>
<path d="M0 0 C13.2 0 26.4 0 40 0 C40 4.62 40 9.24 40 14 C31.42 14 22.84 14 14 14 C14 24.23 14 34.46 14 45 C21.92 45 29.84 45 38 45 C38 49.62 38 54.24 38 59 C30.08 59 22.16 59 14 59 C14 70.88 14 82.76 14 95 C22.58 95 31.16 95 40 95 C40 99.95 40 104.9 40 110 C26.8 110 13.6 110 0 110 C0 73.7 0 37.4 0 0 Z " fill="#FEFEFE" transform="translate(984,278)"/>
<path d="M0 0 C0 5.28 0 10.56 0 16 C-1.65 15.175 -3.3 14.35 -5 13.5 C-10.10530813 11.19014336 -13.44732608 10.23411394 -19 11 C-22.66883017 12.63059119 -25.12234547 14.4324564 -27 18 C-28.91780516 24.32357378 -27.74171003 28.59833955 -24.73828125 34.31542969 C-21.54405798 39.24853068 -17.2766319 43.0740759 -13 47.0625 C-3.70846097 55.76826809 2.89079882 63.02933891 3.39453125 76.14355469 C3.56119172 85.28336652 2.7363107 92.45669079 -3 100 C-8.52706608 105.49474405 -14.35206027 108.27956224 -22.1875 108.375 C-28.5224642 108.29581295 -33.38374238 106.83660882 -39 104 C-39.66 103.67 -40.32 103.34 -41 103 C-41 97.72 -41 92.44 -41 87 C-35 89 -35 89 -31.625 90.625 C-27.16354107 92.31727753 -24.74306772 92.52700752 -20 92 C-16.55753914 90.27876957 -14.59581377 89.00205044 -12.625 85.6875 C-11.0601924 78.95882733 -12.22639294 74.67672427 -15.30834961 68.69506836 C-18.32080551 63.89574656 -22.38140245 60.22238822 -26.5 56.375 C-35.35942466 48.01756418 -42.16132848 41.02059482 -43.3359375 28.38671875 C-43.45565321 17.04964124 -41.75988511 9.01197112 -33.86328125 0.625 C-24.01789577 -7.96133199 -10.62732751 -5.400773 0 0 Z " fill="#FEFEFE" transform="translate(653,281)"/>
<path d="M0 0 C0 4.95 0 9.9 0 15 C-1.7015625 14.4740625 -1.7015625 14.4740625 -3.4375 13.9375 C-9.52299728 12.44035996 -14.64348802 12.88843775 -20.3125 15.5625 C-28.35671632 22.85841713 -29.47020593 34.68839826 -30 45 C-30.52287423 60.31119996 -30.87413029 76.30776233 -23 90 C-19.67890608 93.32109392 -17.19099361 94.20998485 -12.625 94.4375 C-7.96250983 94.23960144 -4.25470733 92.85659956 0 91 C0 96.28 0 101.56 0 107 C-7.61023484 110.58128698 -15.30159197 111.30697432 -23.5546875 109.4140625 C-31.08372298 106.57439168 -36.13526992 100.92823849 -39.5390625 93.7578125 C-44.38906707 81.02300518 -45.37020322 68.24608431 -45.3125 54.6875 C-45.31067719 54.00779144 -45.30885437 53.32808289 -45.30697632 52.6277771 C-45.23098679 35.78755696 -43.78009884 18.352313 -32.734375 4.6875 C-23.56210132 -4.23687439 -11.39113396 -4.55645358 0 0 Z " fill="#FEFEFE" transform="translate(542,279)"/>
<path d="M0 0 C16.83 0 33.66 0 51 0 C51 4.62 51 9.24 51 14 C45.06 14 39.12 14 33 14 C33 45.68 33 77.36 33 110 C28.05 110 23.1 110 18 110 C18 78.32 18 46.64 18 14 C12.06 14 6.12 14 0 14 C0 9.38 0 4.76 0 0 Z " fill="#FEFEFE" transform="translate(1031,278)"/>
<path d="M0 0 C17.16 0 34.32 0 52 0 C52 4.62 52 9.24 52 14 C45.73 14 39.46 14 33 14 C33 45.68 33 77.36 33 110 C28.38 110 23.76 110 19 110 C19 78.32 19 46.64 19 14 C12.73 14 6.46 14 0 14 C0 9.38 0 4.76 0 0 Z " fill="#FEFEFE" transform="translate(661,278)"/>
<path d="M0 0 C4.95 0 9.9 0 15 0 C15 36.3 15 72.6 15 110 C10.05 110 5.1 110 0 110 C0 73.7 0 37.4 0 0 Z " fill="#FEFEFE" transform="translate(723,278)"/>
</svg>
