<svg xmlns="http://www.w3.org/2000/svg" width="1349" height="390" viewBox="0 0 1349 390" version="1.1"><path d="M 6.714 24.250 C 2.989 37.587, -0.046 48.837, -0.029 49.250 C -0.013 49.663, 14.175 50, 31.500 50 L 63 50 63 220 L 63 390 93.130 390 L 123.259 390 122.512 220 L 121.764 50 144.382 50 L 167 50 167 134 L 167 218 194 218 L 221 218 221 159.500 L 221 101 232.250 101.077 C 245.388 101.167, 250.487 102.432, 253.394 106.324 C 255.466 109.099, 255.505 110.022, 255.798 163.572 L 256.096 218 283.048 218 L 310 218 310 185.803 L 310 153.606 313.859 161.553 C 324.235 182.922, 344.376 202.142, 365.692 211.015 C 380.248 217.075, 387.654 217.972, 423.250 217.987 L 455 218 455 137.500 L 455 57 407.750 57.013 C 365.235 57.025, 359.576 57.217, 351.280 58.929 C 332.297 62.846, 318.103 72.852, 311.002 87.321 L 307.655 94.143 305.849 88.260 C 303.630 81.030, 297.375 71.150, 292.816 67.673 C 282.144 59.534, 270.092 57, 242.042 57 L 221 57 221 28.500 L 221 0 117.243 -0 L 13.486 -0 6.714 24.250 M 605 109 L 605 218 632 218 L 659 218 659 159.500 L 659 101 670.250 101.077 C 683.388 101.167, 688.487 102.432, 691.394 106.324 C 693.466 109.099, 693.505 110.016, 693.791 163.581 L 694.081 218.016 750.712 217.758 L 807.343 217.500 822.422 183.773 C 830.715 165.223, 837.725 150.047, 838 150.048 C 838.275 150.049, 845.250 165.325, 853.500 183.995 L 868.500 217.941 902.250 217.971 C 920.813 217.987, 936 217.757, 936 217.460 C 936 217.163, 935.100 215.156, 934 213 C 932.900 210.844, 932 208.860, 932 208.592 C 932 208.324, 934.813 209.414, 938.250 211.014 C 952.030 217.428, 951.590 217.385, 1007.750 217.759 L 1059 218.101 1059.017 187.300 L 1059.033 156.500 1063.474 164.770 C 1076.475 188.985, 1097.889 206.735, 1123.703 214.694 C 1132.441 217.388, 1132.737 217.408, 1167.750 217.772 L 1203 218.137 1203 137.069 L 1203 56 1162.250 56.034 C 1107.195 56.079, 1097.492 57.105, 1082.500 64.468 C 1073.728 68.776, 1068.906 72.764, 1063.358 80.300 L 1059 86.220 1059 71.610 L 1059 57 1032 57 L 1005 57 1005 115.649 L 1005 174.297 993.750 173.692 C 987.563 173.359, 980.700 172.573, 978.500 171.945 C 957.112 165.841, 958.711 136.498, 983.886 73.105 C 987.249 64.638, 990 57.550, 990 57.355 C 990 57.160, 977.614 57, 962.475 57 L 934.950 57 931.385 64.750 C 915.865 98.492, 908.219 124.466, 907.116 147.199 L 906.500 159.898 892.250 132.543 C 884.413 117.497, 878 104.650, 878 103.993 C 878 103.335, 889.813 80.253, 904.250 52.699 C 918.688 25.145, 930.647 2.010, 930.826 1.287 C 931.091 0.218, 924.875 0.022, 897.397 0.237 L 863.643 0.500 851.133 29.250 C 844.252 45.062, 838.354 58, 838.025 58 C 837.697 58, 831.737 45.062, 824.781 29.250 L 812.133 0.500 778.024 0.237 C 745.709 -0.013, 743.965 0.066, 744.854 1.737 C 766.554 42.505, 798.018 103.591, 797.798 104.523 C 797.634 105.214, 786.475 127.006, 773 152.950 L 748.500 200.121 747.942 150.311 C 747.417 103.549, 747.253 100.031, 745.257 92.846 C 740.927 77.260, 734.815 68.959, 723.696 63.565 C 712.732 58.246, 704.445 57, 680.042 57 L 659 57 659 28.500 L 659 0 632 0 L 605 0 605 109 M 1107.007 6.250 C 1104.850 9.688, 1099.069 18.800, 1094.159 26.500 C 1089.249 34.200, 1085.431 40.837, 1085.675 41.250 C 1085.919 41.662, 1094.152 42, 1103.971 42 L 1121.824 42 1126.857 33.843 L 1131.890 25.686 1137.082 33.843 L 1142.274 42 1160.470 42 C 1170.478 42, 1178.925 41.741, 1179.241 41.425 C 1179.557 41.109, 1173.940 31.659, 1166.759 20.425 L 1153.703 -0 1132.315 -0 L 1110.928 -0 1107.007 6.250 M 459 137.500 L 459 218 486 218 L 513 218 513 159.500 L 513 101 524.250 101.077 C 537.388 101.167, 542.487 102.432, 545.394 106.324 C 547.466 109.099, 547.505 110.016, 547.791 163.572 L 548.081 218 575.099 218 L 602.116 218 601.764 159.250 C 601.426 102.847, 601.326 100.194, 599.271 92.846 C 594.905 77.230, 588.807 68.955, 577.696 63.565 C 564.953 57.383, 560.829 57, 507.042 57 L 459 57 459 137.500 M 1207 137.500 L 1207 218 1234 218 L 1261 218 1261 159.500 L 1261 101 1271.318 101 C 1277.760 101, 1283.613 101.587, 1286.895 102.562 C 1296.270 105.346, 1295.461 91.848, 1295.777 250.750 L 1296.054 390 1322.546 390 L 1349.039 390 1348.762 244.250 C 1348.504 108.403, 1348.366 98.092, 1346.721 92.500 C 1342.220 77.192, 1335.350 68.398, 1323.596 62.898 C 1311.969 57.457, 1306.607 57, 1254.412 57 L 1207 57 1207 137.500 M 372.843 101.975 C 367.893 103.470, 364.197 106.305, 361.844 110.410 C 358.470 116.297, 358.610 130.633, 362.134 140.015 C 368.526 157.031, 381.657 169.484, 396.750 172.842 L 401 173.787 401 137.394 L 401 101 388.250 101.086 C 381.238 101.133, 374.304 101.533, 372.843 101.975 M 1121.275 101.971 C 1114.157 103.662, 1109.595 108.260, 1108.052 115.299 C 1105.876 125.225, 1107.486 135.245, 1113.116 146.814 C 1118.763 158.418, 1132.161 170.094, 1142.500 172.420 C 1144.150 172.791, 1146.287 173.329, 1147.250 173.615 C 1148.894 174.103, 1149 171.925, 1149 137.567 L 1149 101 1136.750 101.102 C 1130.013 101.159, 1123.049 101.550, 1121.275 101.971" stroke="none" fill="#009c9c" fill-rule="evenodd"/><path d="M 295.466 257.400 C 288.033 260.638, 283.239 268.465, 280.326 282.117 C 278.116 292.475, 277.834 326.715, 279.875 336.953 C 283.896 357.122, 290.867 365, 304.694 365 C 308.028 365, 312.273 364.360, 314.128 363.578 C 317.997 361.947, 323.074 356.895, 325.307 352.456 C 333.290 336.585, 333.342 284.474, 325.391 268.710 C 323.117 264.201, 319.133 260.143, 314.790 257.908 C 310.392 255.646, 300.113 255.376, 295.466 257.400 M 481.271 258.095 C 473.035 262.172, 467.866 270.558, 464.381 285.500 C 461.727 296.879, 461.724 326.099, 464.376 337.500 C 467.658 351.612, 473.304 360.126, 481.718 363.652 C 486.081 365.480, 495.081 365.352, 499.980 363.391 L 504 361.783 504 354.477 L 504 347.172 499.143 349.224 C 485.880 354.827, 477.835 345.582, 475.967 322.591 C 474.328 302.429, 476.891 283.921, 482.508 275.348 C 485.709 270.463, 493.920 268.686, 500.532 271.449 L 504 272.898 504 265.650 L 504 258.402 500.679 257.201 C 495.350 255.274, 486.110 255.699, 481.271 258.095 M 581.500 257.595 C 576.729 260.207, 573.017 264.113, 570.186 269.500 C 567.881 273.886, 567.559 275.667, 567.568 284 C 567.582 296.521, 569.436 300.272, 582.307 313.824 C 595.740 327.966, 599.037 335.252, 595.638 343.282 C 592.315 351.133, 584.792 352.770, 575.116 347.750 C 572.201 346.238, 569.632 345, 569.408 345 C 569.183 345, 569 348.396, 569 352.546 L 569 360.092 574.250 362.536 C 577.999 364.282, 581.216 364.977, 585.500 364.968 C 601.149 364.936, 610.891 352.547, 609.783 334.085 C 609.146 323.484, 606.054 317.908, 593.839 305.335 C 582.301 293.459, 579.432 288.271, 580.493 281.198 C 580.986 277.910, 582.112 275.688, 584.490 273.310 C 588.725 269.075, 594.313 268.809, 601.581 272.496 C 604.286 273.869, 606.612 274.994, 606.750 274.996 C 606.888 274.998, 607 271.708, 607 267.685 L 607 260.370 603.250 258.540 C 597.962 255.959, 585.479 255.417, 581.500 257.595 M 779.491 257.813 C 766.844 263.722, 761.082 283.637, 762.368 317 C 763.448 345.038, 767.976 357.314, 779.404 363.190 C 782.565 364.816, 784.786 365.131, 791.073 364.845 C 797.780 364.541, 799.415 364.084, 803.065 361.496 C 812.206 355.017, 816.209 342.844, 816.384 321 L 816.500 306.500 803.750 306.220 L 791 305.940 791 312.970 L 791 320 797.648 320 L 804.296 320 803.727 328.782 C 802.775 343.476, 798.127 351, 790 351 C 784.483 351, 780.457 347.286, 778.253 340.163 C 776.784 335.416, 776.501 330.537, 776.505 310 C 776.510 282.540, 777.143 278.657, 782.490 273.310 C 785.261 270.539, 786.536 270, 790.323 270 C 796.286 270, 800.482 273.431, 802.349 279.834 C 803.097 282.400, 804.030 284.443, 804.422 284.373 C 807.348 283.849, 815 278.583, 815 277.093 C 815 276.112, 813.538 272.428, 811.750 268.906 C 807.222 259.983, 801.731 256.613, 791.078 256.220 C 785.323 256.008, 782.536 256.391, 779.491 257.813 M 1107.466 257.400 C 1100.033 260.638, 1095.239 268.465, 1092.326 282.117 C 1090.116 292.475, 1089.834 326.715, 1091.875 336.953 C 1095.896 357.122, 1102.867 365, 1116.694 365 C 1135.918 365, 1143.122 350.145, 1143.122 310.500 C 1143.122 278.039, 1138.787 264.079, 1126.790 257.908 C 1122.392 255.646, 1112.113 255.376, 1107.466 257.400 M 168 310.500 L 168 364 179.750 363.994 C 192.607 363.988, 197.003 363.146, 202.094 359.716 C 209.439 354.766, 212.320 347.304, 212.408 333 C 212.459 324.821, 212.122 322.805, 209.984 318.500 C 208.447 315.406, 206.072 312.580, 203.755 311.086 L 200.011 308.672 202.965 306.875 C 204.590 305.887, 206.950 303.148, 208.210 300.789 C 210.234 296.998, 210.498 295.107, 210.486 284.500 C 210.474 274.060, 210.186 271.960, 208.264 268.345 C 203.709 259.774, 196.632 257, 179.318 257 L 168 257 168 310.500 M 225 310.500 L 225 364 231.483 364 L 237.966 364 238.233 338.895 L 238.500 313.789 248.500 338.522 C 254 352.125, 258.997 363.446, 259.605 363.679 C 260.213 363.912, 263.451 363.967, 266.800 363.801 L 272.890 363.500 262.368 338.500 C 256.581 324.750, 251.768 313.109, 251.673 312.630 C 251.578 312.152, 252.988 311.241, 254.807 310.606 C 263.416 307.600, 268 298.704, 268 285 C 268 263.976, 259.949 257, 235.684 257 L 225 257 225 310.500 M 348.649 309.750 C 342.758 338.762, 337.952 362.837, 337.969 363.250 C 337.986 363.663, 340.888 364, 344.417 364 L 350.834 364 351.931 358.750 C 352.534 355.863, 353.543 351.137, 354.173 348.250 L 355.318 343 365.534 343 L 375.750 343 376.381 346.250 C 376.728 348.038, 377.730 352.762, 378.607 356.750 L 380.201 364 386.600 364 C 391.260 364, 393 363.638, 393 362.669 C 393 361.938, 388.275 338.258, 382.500 310.047 C 376.725 281.837, 372 258.361, 372 257.878 C 372 257.395, 369.156 257, 365.680 257 L 359.361 257 348.649 309.750 M 401 310.370 L 401 364 412.818 364 C 426.581 364, 432.894 362.488, 439.195 357.681 C 448.355 350.695, 452.154 337.457, 452.304 312 C 452.453 286.665, 449.481 273.765, 441.631 265.689 C 435.637 259.521, 430.368 257.899, 414.250 257.263 L 401 256.739 401 310.370 M 529.635 258.704 C 529.345 259.692, 524.586 282.775, 519.060 310 C 513.534 337.225, 508.776 360.512, 508.487 361.750 C 507.982 363.915, 508.220 364, 514.790 364 L 521.618 364 523.571 353.750 L 525.525 343.500 535.958 343.500 L 546.392 343.500 548.446 353.500 L 550.500 363.500 557.250 363.796 C 560.962 363.958, 563.977 363.733, 563.949 363.296 C 563.920 362.858, 559.049 338.875, 553.124 310 L 542.350 257.500 536.257 257.204 C 531.106 256.955, 530.082 257.186, 529.635 258.704 M 615 264 L 615 271 623.500 271 L 632 271 632 317.500 L 632 364 638.500 364 L 645 364 645 317.500 L 645 271 654 271 L 663 271 663 264 L 663 257 639 257 L 615 257 615 264 M 672 310.500 L 672 364 679 364 L 686 364 686 310.500 L 686 257 679 257 L 672 257 672 310.500 M 701 310.500 L 701 364 707.500 364 L 714 364 714.100 328.750 L 714.200 293.500 725.850 328.733 L 737.500 363.965 743.750 363.983 L 750 364 750 310.500 L 750 257 743.500 257 L 737 257 736.919 291.750 L 736.837 326.500 725.179 291.750 L 713.521 257 707.261 257 L 701 257 701 310.500 M 850.459 258.250 C 850.195 258.938, 850.097 282.900, 850.240 311.500 L 850.500 363.500 856.750 363.798 L 863 364.095 863.090 328.298 L 863.180 292.500 874.868 328 L 886.556 363.500 892.778 363.798 L 899 364.095 899 310.548 L 899 257 893 257 L 887 257 886.921 292.750 L 886.842 328.500 874.838 292.750 L 862.833 257 856.885 257 C 853.049 257, 850.767 257.444, 850.459 258.250 M 914 310.500 L 914 364 933 364 L 952 364 952 357 L 952 350 940 350 L 928 350 928 332.500 L 928 315 939 315 L 950 315 950 308 L 950 301 939 301 L 928 301 928 286 L 928 271 940 271 L 952 271 952 264 L 952 257 933 257 L 914 257 914 310.500 M 958 264 L 958 271 966.500 271 L 975 271 975 317.500 L 975 364 981.500 364 L 988 364 988 317.500 L 988 271 997 271 L 1006 271 1006 264 L 1006 257 982 257 L 958 257 958 264 M 1009.051 257.750 C 1009.079 258.163, 1012.567 282.125, 1016.801 311 L 1024.500 363.500 1030.012 363.793 L 1035.523 364.086 1040.949 328.063 C 1043.933 308.251, 1046.483 292.149, 1046.615 292.282 C 1046.747 292.414, 1049.138 307.592, 1051.928 326.011 C 1054.718 344.430, 1057.234 360.512, 1057.519 361.750 C 1057.980 363.747, 1058.656 364, 1063.519 364 C 1066.534 364, 1069 363.576, 1069 363.059 C 1069 362.541, 1072.375 338.875, 1076.500 310.467 C 1080.625 282.059, 1084 258.408, 1084 257.908 C 1084 257.409, 1081.133 257, 1077.628 257 L 1071.256 257 1070.708 260.750 C 1070.406 262.813, 1068.454 278.617, 1066.369 295.871 L 1062.578 327.241 1057.348 292.871 C 1054.472 273.967, 1052.092 258.163, 1052.059 257.750 C 1051.986 256.824, 1041 256.740, 1041 257.665 C 1041 259.722, 1031.765 320.892, 1031.158 322.855 C 1030.701 324.333, 1029.012 313.353, 1026.619 293.355 C 1024.523 275.835, 1022.578 260.488, 1022.296 259.250 C 1021.830 257.205, 1021.201 257, 1015.392 257 C 1011.876 257, 1009.023 257.337, 1009.051 257.750 M 1157 310.500 L 1157 364 1163.483 364 L 1169.966 364 1170.233 338.834 L 1170.500 313.667 1180.610 338.584 L 1190.720 363.500 1197.985 363.796 C 1203.625 364.026, 1205.132 363.803, 1204.722 362.796 C 1204.432 362.083, 1199.651 350.705, 1194.097 337.510 C 1188.544 324.316, 1184 312.989, 1184 312.339 C 1184 311.690, 1185.377 310.857, 1187.059 310.487 C 1191.436 309.526, 1196.515 303.977, 1198.506 297.981 C 1199.809 294.060, 1200.130 290.378, 1199.844 282.647 C 1199.516 273.796, 1199.117 271.875, 1196.774 267.878 C 1195.294 265.351, 1193.016 262.585, 1191.713 261.732 C 1186.935 258.601, 1178.852 257, 1167.818 257 L 1157 257 1157 310.500 M 1212 310.500 L 1212 364 1218.983 364 L 1225.966 364 1226.233 338.604 L 1226.500 313.207 1236.395 338.604 L 1246.290 364 1253.145 364 C 1256.915 364, 1259.996 363.663, 1259.991 363.250 C 1259.986 362.837, 1255.261 350.575, 1249.491 336 C 1243.721 321.425, 1239 308.817, 1239 307.982 C 1239 307.147, 1243.725 295.672, 1249.499 282.482 C 1255.273 269.292, 1259.998 258.142, 1259.999 257.704 C 1260 257.267, 1257.003 257.042, 1253.339 257.204 L 1246.678 257.500 1236.589 280.757 L 1226.500 304.015 1226.232 280.507 L 1225.964 257 1218.982 257 L 1212 257 1212 310.500 M 181 286.579 L 181 303.227 185.750 302.536 C 194.710 301.231, 198 296.839, 198 286.181 C 198 275.132, 195.508 271.831, 186.250 270.619 L 181 269.931 181 286.579 M 238 286.371 L 238 303 242.050 303 C 247.238 303, 251.259 300.902, 252.930 297.325 C 254.842 293.231, 255.473 281.964, 254.035 277.606 C 252.522 273.020, 249.951 271.310, 243.250 270.431 L 238 269.742 238 286.371 M 299.358 271.772 C 293.360 276.610, 291.614 287.228, 292.257 314.960 C 292.797 338.301, 293.988 344.129, 299.093 348.425 C 305.659 353.950, 312.549 350.507, 315.759 340.097 C 318.034 332.718, 318.300 290.614, 316.124 282.142 C 314.220 274.725, 309.934 269.993, 305.146 270.022 C 303.141 270.034, 300.536 270.822, 299.358 271.772 M 1111.743 271.084 C 1108.919 272.729, 1106.130 279.279, 1104.912 287.127 C 1103.247 297.862, 1104.238 333.949, 1106.383 340.675 C 1110.146 352.477, 1121.106 354.609, 1126.004 344.493 C 1129.063 338.172, 1130.301 324.824, 1129.711 304.500 C 1129.126 284.318, 1127.762 277.448, 1123.444 272.942 C 1120.453 269.819, 1115.315 269.004, 1111.743 271.084 M 1170 286.371 L 1170 303 1174.050 303 C 1179.863 303, 1183.473 300.775, 1185.376 296.018 C 1188.581 288.009, 1186.828 274.584, 1182.258 272.138 C 1181.206 271.575, 1178.018 270.806, 1175.173 270.429 L 1170 269.742 1170 286.371 M 414 310.642 L 414 350.285 420.160 349.641 C 423.548 349.287, 427.691 348.197, 429.366 347.218 C 436.649 342.965, 439.517 330.180, 438.726 305.500 C 438.167 288.073, 436.700 281.173, 432.489 276.170 C 429.885 273.075, 423.893 271, 417.557 271 L 414 271 414 310.642 M 362.144 305.735 C 360.304 316.056, 358.562 325.738, 358.274 327.250 L 357.750 330 365.375 330 C 370.175 330, 373 329.599, 373 328.918 C 373 327.957, 366.204 289.646, 365.694 287.735 C 365.582 287.315, 363.985 295.415, 362.144 305.735 M 535.986 289 C 535.886 289.275, 534.137 298.500, 532.098 309.500 L 528.391 329.500 535.818 329.794 C 539.903 329.956, 543.359 329.956, 543.498 329.794 C 543.637 329.632, 542.045 320.275, 539.959 309 C 537.874 297.725, 536.086 288.725, 535.986 289 M 181 332.500 L 181 350 184.750 349.944 C 195.319 349.784, 198.997 345.410, 198.997 333 C 198.997 320.891, 194.338 315.006, 184.750 315.002 L 181 315 181 332.500" stroke="none" fill="#040404" fill-rule="evenodd"/></svg>