<?xml version="1.0" encoding="UTF-8"?>
<svg version="1.1" xmlns="http://www.w3.org/2000/svg" width="427" height="427">
<path d="M0 0 C1.3744121 -0.00551503 1.3744121 -0.00551503 2.77659011 -0.01114148 C5.86577512 -0.02220864 8.95492652 -0.02602728 12.04412842 -0.02983093 C14.25140999 -0.03609328 16.4586905 -0.04273987 18.66596985 -0.04974365 C24.6763895 -0.06717434 30.68680119 -0.07771098 36.69723988 -0.08594918 C40.4498515 -0.09109478 44.20246063 -0.0971707 47.9550705 -0.10346031 C58.34352923 -0.12033283 68.73198637 -0.13496781 79.1204567 -0.14220905 C81.8168564 -0.14411897 84.51325609 -0.1460393 87.20965576 -0.147995 C88.21493095 -0.14872061 88.21493095 -0.14872061 89.24051473 -0.14946087 C100.09691814 -0.15776107 110.95321135 -0.18309726 121.80956665 -0.21557567 C132.95383689 -0.24864377 144.09806724 -0.2663248 155.24239039 -0.26985329 C161.50022148 -0.27220735 167.75787845 -0.28121409 174.01566315 -0.30631447 C179.90239775 -0.3295445 185.78884299 -0.33384873 191.6756115 -0.32355309 C193.83715462 -0.32305639 195.99871175 -0.3294161 198.16021156 -0.34310913 C201.10984233 -0.36075048 204.0584259 -0.35375982 207.00805664 -0.34057617 C207.86467872 -0.35154542 208.7213008 -0.36251466 209.60388112 -0.37381631 C216.40536558 -0.30035564 219.82425366 2.10061529 225.00799561 6.45967102 C228.72796158 10.90296371 229.51262129 15.10919947 229.07049561 20.77217102 C227.96981367 28.08119377 223.94575843 31.816248 218.25799561 36.14717102 C214.9247125 37.81381257 211.18146216 37.29512279 207.51599121 37.29434204 C206.14157911 37.29985707 206.14157911 37.29985707 204.7394011 37.30548352 C201.6502161 37.31655069 198.56106469 37.32036932 195.47186279 37.32417297 C193.26458122 37.33043532 191.05730071 37.33708191 188.85002136 37.34408569 C182.83960171 37.36151638 176.82919002 37.37205302 170.81875134 37.38029122 C167.06613971 37.38543682 163.31353058 37.39151274 159.56092072 37.39780235 C149.17246198 37.41467487 138.78400484 37.42930985 128.39553452 37.43655109 C125.69913481 37.43846101 123.00273512 37.44038134 120.30633545 37.44233704 C119.30106026 37.44306265 119.30106026 37.44306265 118.27547649 37.44380292 C107.41907308 37.45210311 96.56277986 37.4774393 85.70642456 37.50991771 C74.56215432 37.54298581 63.41792397 37.56066684 52.27360082 37.56419533 C46.01576973 37.56654939 39.75811276 37.57555613 33.50032806 37.60065651 C27.61359346 37.62388654 21.72714822 37.62819077 15.84037971 37.61789513 C13.67883659 37.61739843 11.51727946 37.62375814 9.35577965 37.63745117 C6.40614888 37.65509252 3.45756531 37.64810186 0.50793457 37.63491821 C-0.77699855 37.65137208 -0.77699855 37.65137208 -2.08788991 37.66815835 C-8.88937437 37.59469768 -12.30826245 35.19372675 -17.49200439 30.83467102 C-21.21197037 26.39137833 -21.99663008 22.18514257 -21.55450439 16.52217102 C-20.45382246 9.21314827 -16.42976722 5.47809404 -10.74200439 1.14717102 C-7.40872129 -0.51947053 -3.66547095 -0.00078075 0 0 Z " fill="#FEFEFE" transform="translate(109.74200439453125,194.8528289794922)"/>
<path d="M0 0 C0.90896206 -0.00297112 1.81792411 -0.00594224 2.75443047 -0.0090034 C5.81287396 -0.01770379 8.87127838 -0.01919978 11.92973328 -0.02069092 C14.11745793 -0.02531813 16.30518177 -0.03034265 18.49290466 -0.03573608 C24.44541908 -0.04887106 30.3979222 -0.05530713 36.35044885 -0.05974674 C40.06738643 -0.06267557 43.78432092 -0.06678 47.50125694 -0.07125092 C59.7934076 -0.08571491 72.08554977 -0.09504297 84.37770817 -0.09911743 C85.04053564 -0.0993402 85.7033631 -0.09956296 86.38627625 -0.09979248 C87.04991297 -0.10001391 87.7135497 -0.10023534 88.39729663 -0.10046348 C99.15015059 -0.10441134 109.90293678 -0.12186514 120.65576456 -0.145152 C131.69611304 -0.1688685 142.73642581 -0.18107003 153.77679986 -0.18249393 C159.97533747 -0.18354321 166.17377949 -0.18947738 172.37229347 -0.20731354 C178.20237359 -0.22376289 184.03228596 -0.22596493 189.86238098 -0.21717453 C192.0029565 -0.21640249 194.14354092 -0.2207688 196.28409386 -0.23063278 C199.20505911 -0.24330429 202.12542591 -0.23750143 205.04638672 -0.22705078 C205.89454478 -0.23510719 206.74270284 -0.24316359 207.61656266 -0.25146413 C213.95874929 -0.19835144 218.81893369 1.34778886 223.46366882 5.89044189 C226.93023585 9.59357255 228.17744458 13.22697804 228.24101257 18.33966064 C227.87336129 23.89213766 226.48082395 27.63706591 223.21366882 32.14044189 C217.2750697 36.74588611 212.73391989 37.28828979 205.42733765 37.28088379 C204.51837559 37.28385491 203.60941353 37.28682603 202.67290717 37.28988719 C199.61446368 37.29858758 196.55605927 37.30008357 193.49760437 37.30157471 C191.30987972 37.30620192 189.12215588 37.31122644 186.93443298 37.31661987 C180.98191857 37.32975485 175.02941544 37.33619092 169.0768888 37.34063053 C165.35995122 37.34355936 161.64301673 37.34766379 157.9260807 37.3521347 C145.63393004 37.36659869 133.34178787 37.37592676 121.04962947 37.38000122 C120.38680201 37.38022398 119.72397455 37.38044675 119.0410614 37.38067627 C118.37742467 37.3808977 117.71378795 37.38111913 117.03004102 37.38134727 C106.27718706 37.38529513 95.52440087 37.40274893 84.77157309 37.42603579 C73.7312246 37.44975229 62.69091184 37.46195382 51.65053779 37.46337771 C45.45200018 37.464427 39.25355816 37.47036117 33.05504417 37.48819733 C27.22496405 37.50464668 21.39505169 37.50684872 15.56495667 37.49805832 C13.42438114 37.49728628 11.28379672 37.50165259 9.14324379 37.51151657 C6.22227854 37.52418808 3.30191174 37.51838522 0.38095093 37.50793457 C-0.89128617 37.52001918 -0.89128617 37.52001918 -2.18922502 37.53234792 C-8.48435743 37.47962929 -12.5127105 35.99106338 -17.47383118 31.95294189 C-21.41907193 27.15467612 -23.16057398 22.70387786 -22.66133118 16.45294189 C-21.48817789 9.31625939 -17.519774 5.25809629 -11.78633118 1.14044189 C-7.8515952 -0.17113677 -4.10173245 -0.00415755 0 0 Z " fill="#FEFEFE" transform="translate(110.78633117675781,283.85955810546875)"/>
<path d="M0 0 C0.90896206 -0.00297112 1.81792411 -0.00594224 2.75443047 -0.0090034 C5.81287396 -0.01770379 8.87127838 -0.01919978 11.92973328 -0.02069092 C14.11745793 -0.02531813 16.30518177 -0.03034265 18.49290466 -0.03573608 C24.44541908 -0.04887106 30.3979222 -0.05530713 36.35044885 -0.05974674 C40.06738643 -0.06267557 43.78432092 -0.06678 47.50125694 -0.07125092 C59.7934076 -0.08571491 72.08554977 -0.09504297 84.37770817 -0.09911743 C85.04053564 -0.0993402 85.7033631 -0.09956296 86.38627625 -0.09979248 C87.04991297 -0.10001391 87.7135497 -0.10023534 88.39729663 -0.10046348 C99.15015059 -0.10441134 109.90293678 -0.12186514 120.65576456 -0.145152 C131.69611304 -0.1688685 142.73642581 -0.18107003 153.77679986 -0.18249393 C159.97533747 -0.18354321 166.17377949 -0.18947738 172.37229347 -0.20731354 C178.20237359 -0.22376289 184.03228596 -0.22596493 189.86238098 -0.21717453 C192.0029565 -0.21640249 194.14354092 -0.2207688 196.28409386 -0.23063278 C199.20505911 -0.24330429 202.12542591 -0.23750143 205.04638672 -0.22705078 C205.89454478 -0.23510719 206.74270284 -0.24316359 207.61656266 -0.25146413 C213.91169508 -0.1987455 217.94004815 1.28982041 222.90116882 5.32794189 C226.84640958 10.12620767 228.58791163 14.57700593 228.08866882 20.82794189 C227.0706766 27.14165959 223.97026161 30.95011015 219.21366882 35.14044189 C214.63338486 37.60136199 210.25167591 37.42368382 205.18682861 37.40113831 C204.27615771 37.40496385 203.3654868 37.4087894 202.42721981 37.41273087 C199.37493906 37.42305176 196.32284675 37.41907043 193.27055359 37.4151001 C191.08253302 37.41944706 188.89451397 37.42463015 186.70649719 37.43058777 C180.76234798 37.44399033 174.8182623 37.44455506 168.87410092 37.44202447 C163.91369518 37.44095567 158.95330234 37.44583577 153.99289936 37.45062989 C141.62278621 37.4623641 129.25270443 37.46149749 116.88258939 37.45507308 C106.14279074 37.44990363 95.40308278 37.46116034 84.66330207 37.4801713 C73.63192438 37.49954853 62.6005917 37.50751448 51.56919712 37.50404805 C45.37740376 37.50223339 39.18569349 37.50488969 32.99391365 37.51876259 C27.17200418 37.53131847 21.35027652 37.52941796 15.5283699 37.5163517 C13.39102175 37.51398154 11.25366088 37.51673628 9.11632729 37.52497482 C6.19983696 37.53540657 3.28396073 37.52737016 0.36749268 37.5146637 C-0.90269806 37.52572512 -0.90269806 37.52572512 -2.19854921 37.53701001 C-8.53529886 37.47888556 -13.39585066 35.92893383 -18.03633118 31.39044189 C-21.50289821 27.68731124 -22.75010694 24.05390575 -22.81367493 18.94122314 C-22.44602365 13.38874612 -21.0534863 9.64381788 -17.78633118 5.14044189 C-11.84773205 0.53499768 -7.30658224 -0.007406 0 0 Z " fill="#FEFEFE" transform="translate(110.78633117675781,105.85955810546875)"/>
</svg>
