<?xml version="1.0" encoding="UTF-8"?>
<svg version="1.1" xmlns="http://www.w3.org/2000/svg" width="169" height="169">
<path d="M0 0 C16.81595588 9.60911765 16.81595588 9.60911765 21.625 12.4375 C22.30264404 12.83598145 22.98028809 13.23446289 23.6784668 13.64501953 C31.98868199 18.55441119 40.22634043 23.58448778 48.47192383 28.60131836 C57.91418815 34.34594045 67.38124454 40.04800644 76.86572266 45.72265625 C79.47672853 47.28531728 82.08610605 48.85067817 84.69506836 50.41674805 C85.88705946 51.13213618 87.07927525 51.84715007 88.27172852 52.56176758 C91.84688192 54.70473357 95.41715645 56.85556637 98.984375 59.01171875 C111.84013659 66.77221097 111.84013659 66.77221097 125 74 C125 74.99 125 75.98 125 77 C123.98184204 77.54853638 123.98184204 77.54853638 122.94311523 78.1081543 C116.57510373 81.557425 110.2893446 85.11512651 104.0625 88.8125 C103.12776855 89.36599121 102.19303711 89.91948242 101.22998047 90.48974609 C93.07745873 95.33109798 84.97531448 100.25449492 76.87905884 105.18914795 C66.35921264 111.59937471 55.77443984 117.89574611 45.17126465 124.16696167 C37.07627878 128.95672381 29.02211544 133.79532723 21.07470703 138.82739258 C3.37487845 150 3.37487845 150 0 150 C0 100.5 0 51 0 0 Z " fill="#FEFEFE" transform="translate(23,9)"/>
</svg>
