<?xml version="1.0" standalone="no"?>
<!DOCTYPE svg PUBLIC "-//W3C//DTD SVG 20010904//EN"
 "http://www.w3.org/TR/2001/REC-SVG-20010904/DTD/svg10.dtd">
<svg version="1.0" xmlns="http://www.w3.org/2000/svg"
 width="2000.000000pt" height="987.000000pt" viewBox="0 0 2000.000000 987.000000"
 preserveAspectRatio="xMidYMid meet">

<g transform="translate(0.000000,987.000000) scale(0.100000,-0.100000)"
fill="#000000" stroke="none">
<path d="M0 7645 l0 -2225 2218 0 c2025 -1 2213 -2 2172 -17 -163 -57 -332
-266 -346 -428 -3 -33 -10 -70 -16 -82 -16 -33 7 -133 49 -218 46 -91 154
-200 242 -244 158 -80 340 -78 508 4 236 116 341 451 221 704 -57 119 -191
229 -325 266 -40 11 340 13 2335 14 l2382 1 0 -440 0 -440 1848 1 c1094 1
1806 5 1747 10 -161 14 -442 62 -557 95 -17 5 -18 32 -18 381 l0 375 23 -5
c12 -2 85 -21 162 -40 254 -66 366 -81 590 -82 179 0 208 2 278 23 211 61 317
172 347 362 8 53 10 253 8 695 -4 682 -3 668 -69 802 -67 140 -238 233 -424
233 -246 0 -462 -176 -505 -413 -9 -49 -8 -75 10 -165 29 -148 59 -215 134
-302 123 -144 369 -186 614 -104 40 13 75 24 77 24 3 0 5 -168 5 -374 0 -348
-1 -375 -18 -380 -86 -27 -223 -41 -397 -40 -165 0 -202 3 -285 23 -360 89
-611 288 -765 605 -117 240 -153 473 -125 809 30 367 288 729 647 910 510 259
1136 178 1530 -196 211 -201 334 -470 363 -797 13 -154 13 -1193 -1 -1339 -20
-213 -82 -410 -181 -572 -63 -103 -204 -248 -306 -314 -179 -115 -399 -189
-637 -214 -44 -5 1379 -9 3193 -10 l3272 -1 0 2300 0 2300 -2200 0 -2200 0 0
-565 0 -565 68 26 c186 70 395 101 561 83 300 -33 553 -211 684 -482 74 -151
106 -286 108 -446 l1 -96 18 70 c10 39 34 108 54 154 175 414 515 683 991 782
136 29 348 29 492 1 322 -64 565 -198 756 -417 63 -73 227 -307 227 -325 0 -7
-1256 -835 -1266 -835 -2 0 -74 106 -159 235 -140 213 -153 236 -137 248 9 7
162 104 339 215 177 111 319 205 315 208 -4 4 -48 23 -97 42 -213 85 -392 51
-545 -103 -77 -78 -131 -166 -167 -275 -23 -71 -26 -96 -26 -215 0 -120 3
-144 26 -217 48 -143 147 -247 308 -322 212 -99 413 -74 639 79 80 54 209 194
275 300 32 49 60 90 63 90 5 0 584 -280 590 -285 6 -6 -72 -152 -126 -235
-200 -309 -494 -540 -817 -643 -194 -62 -259 -72 -465 -72 -166 1 -196 3 -290
27 -440 111 -826 460 -976 885 l-24 68 0 -462 0 -463 -420 0 -420 0 0 751 c0
547 -3 762 -12 791 -16 54 -80 124 -142 155 -105 54 -260 39 -345 -33 -80 -69
-76 -22 -79 -891 l-3 -773 -414 0 -415 0 0 1755 0 1755 -1305 0 -1305 0 0 365
0 365 -6080 0 -6080 0 0 -2225z m1755 1483 c3 -13 113 -570 246 -1238 132
-668 242 -1216 243 -1217 1 -2 129 547 285 1220 155 672 284 1230 287 1240 5
16 37 17 480 17 301 0 474 -4 474 -10 0 -23 -755 -2856 -786 -2950 -113 -339
-254 -512 -479 -587 -74 -25 -93 -27 -250 -28 -133 0 -184 4 -235 18 -270 74
-428 269 -538 663 -34 121 -702 2864 -702 2882 0 9 126 12 485 12 l485 0 5
-22z m3975 -162 c0 -4 -579 -559 -647 -620 l-43 -38 -337 323 c-186 178 -339
327 -341 331 -2 5 305 8 682 8 377 0 686 -2 686 -4z m12994 -331 l335 -320
-339 -3 c-186 -1 -494 -1 -683 0 l-345 3 337 322 c185 177 341 321 348 320 6
-1 162 -146 347 -322z m-10849 -525 c392 -77 685 -369 798 -794 21 -79 21
-100 24 -883 l4 -803 -405 0 -406 0 -2 753 -3 752 -26 56 c-85 180 -298 237
-435 116 -57 -50 -91 -118 -104 -204 -5 -39 -10 -365 -10 -770 l0 -703 -395 0
-396 0 3 823 3 822 28 99 c104 381 403 660 792 736 157 32 372 32 530 0z
m3244 20 c276 -25 491 -127 672 -317 138 -147 247 -366 278 -563 7 -41 11
-348 11 -842 l0 -778 -400 0 -400 0 0 708 c0 467 -4 729 -11 768 -29 159 -148
264 -299 264 -113 0 -208 -76 -249 -197 -21 -61 -21 -78 -21 -803 l0 -740
-400 0 -400 0 0 763 c0 827 2 868 56 1037 125 399 475 665 919 699 55 5 109 9
120 9 11 1 67 -3 124 -8z m-6094 -10 c306 -19 548 -80 776 -196 313 -160 519
-410 580 -709 17 -83 19 -148 19 -837 l0 -748 -415 0 -414 0 -3 653 c-3 582
-6 658 -21 712 -59 203 -201 337 -403 380 -241 51 -527 -39 -645 -203 -63 -88
-84 -171 -83 -327 0 -114 3 -139 26 -202 36 -100 85 -163 173 -222 78 -52 154
-85 239 -103 105 -22 389 4 499 47 16 7 17 -13 17 -324 l0 -331 -52 -30 c-66
-38 -143 -67 -227 -86 -93 -21 -336 -29 -444 -15 -808 108 -1297 995 -976
1768 41 98 151 262 239 356 208 223 543 387 850 417 108 10 101 10 265 0z
m4685 -1400 l0 -300 -370 0 -370 0 0 300 0 300 370 0 370 0 0 -300z m8855
-1373 c367 -175 315 -669 -82 -772 -198 -52 -415 47 -508 231 -28 55 -30 67
-30 169 0 102 2 114 30 169 55 110 161 196 285 232 28 8 80 12 137 10 81 -3
101 -7 168 -39z"/>
<path d="M774 5343 c3 -10 179 -756 390 -1658 212 -902 397 -1680 411 -1730
102 -351 248 -568 445 -663 240 -117 545 -119 779 -6 76 37 108 60 165 118
118 121 216 313 296 581 39 132 860 3341 860 3363 0 9 -128 12 -529 12 l-529
0 -5 -22 c-4 -13 -142 -630 -307 -1373 -166 -742 -308 -1381 -317 -1418 -8
-38 -17 -67 -19 -65 -2 2 -123 627 -269 1389 -146 761 -270 1408 -276 1437
l-10 52 -545 0 c-515 0 -545 -1 -540 -17z"/>
<path d="M6548 5103 c-74 -81 -251 -276 -392 -433 l-257 -285 391 -3 c214 -1
566 -1 781 0 l392 3 -388 430 c-213 237 -389 431 -390 433 -2 2 -63 -63 -137
-145z"/>
<path d="M8230 3570 c0 -867 -3 -1240 -11 -1240 -5 0 -151 71 -322 158 -172
86 -315 158 -318 160 -3 1 -11 -10 -18 -25 -29 -64 -150 -233 -220 -306 -165
-173 -335 -264 -535 -286 -137 -16 -264 22 -423 126 -133 87 -211 193 -254
348 -31 107 -33 324 -5 430 57 218 205 413 374 493 66 32 86 36 176 40 119 5
182 -8 306 -65 l82 -38 -381 -248 c-209 -137 -381 -252 -381 -255 0 -17 339
-537 349 -537 16 0 1410 948 1411 959 0 14 -117 203 -178 286 -77 104 -222
252 -317 323 -198 147 -504 256 -784 276 -346 26 -730 -94 -1038 -326 -235
-177 -448 -525 -515 -843 -21 -100 -42 -324 -40 -425 7 -318 220 -723 518
-986 435 -384 933 -480 1493 -287 222 76 415 196 598 371 161 155 262 288 373
495 l55 102 7 -104 c10 -168 55 -304 145 -439 151 -227 356 -370 623 -433 50
-12 150 -17 433 -21 l367 -5 0 426 0 426 -177 0 c-361 0 -476 72 -503 312 -6
46 -10 255 -10 466 l0 382 340 0 340 0 0 425 0 425 -330 0 -330 0 0 340 0 340
-450 0 -450 0 0 -1240z"/>
<path d="M10935 4179 c-234 -22 -414 -89 -598 -220 -227 -162 -377 -397 -450
-704 -20 -88 -21 -113 -24 -1038 l-4 -947 443 2 443 3 5 885 5 885 33 67 c41
83 121 159 186 178 63 17 161 9 219 -19 98 -47 170 -147 196 -269 8 -37 11
-314 11 -893 l0 -839 448 2 447 3 0 915 c0 1021 2 980 -71 1192 -121 347 -371
614 -683 728 -191 70 -374 91 -606 69z"/>
<path d="M13720 4169 c-340 -30 -675 -190 -920 -438 -272 -274 -407 -579 -427
-961 -30 -589 272 -1143 774 -1417 175 -95 393 -146 628 -146 211 0 358 30
510 106 104 51 95 8 95 440 0 357 -1 379 -17 372 -85 -33 -289 -65 -418 -65
-138 0 -280 45 -403 128 -158 108 -232 270 -232 507 0 267 89 429 296 536 109
57 166 76 265 89 88 11 238 -2 314 -26 154 -51 284 -160 348 -294 73 -152 70
-119 74 -968 l4 -762 464 0 465 0 0 853 c0 925 -1 944 -56 1119 -69 218 -228
435 -427 582 -178 132 -449 245 -717 300 -201 41 -458 60 -620 45z"/>
<path d="M18472 4169 c-254 -22 -489 -132 -687 -320 l-72 -69 -26 33 c-110
145 -291 259 -495 315 -91 24 -111 26 -312 26 -201 0 -221 -2 -312 -26 -419
-114 -712 -379 -810 -733 -23 -80 -23 -80 -26 -1102 l-3 -1023 466 0 465 0 0
868 c0 925 0 927 49 1006 26 42 88 99 133 122 18 10 65 19 106 22 66 4 78 2
136 -27 73 -36 108 -72 145 -151 l26 -55 3 -892 3 -893 464 0 465 0 0 833 c0
465 5 864 10 905 12 88 36 146 80 190 134 134 403 94 489 -73 l26 -49 3 -903
2 -903 465 0 465 0 0 968 c0 609 -4 991 -10 1032 -51 320 -298 628 -635 790
-192 91 -397 128 -613 109z"/>
<path d="M4115 4098 c-3 -7 -4 -645 -3 -1418 l3 -1405 460 0 460 0 3 1418 2
1417 -460 0 c-359 0 -462 -3 -465 -12z"/>
<path d="M6522 1014 c-139 -47 -253 -145 -311 -267 -39 -81 -50 -134 -51 -228
0 -188 107 -362 277 -452 127 -66 252 -82 387 -47 107 27 169 63 252 145 76
75 113 140 139 240 67 263 -107 549 -380 620 -93 24 -225 19 -313 -11z"/>
</g>
</svg>
